<svg width="28" height="28" viewBox="0 0 28 28" fill="none" xmlns="http://www.w3.org/2000/svg">
<path d="M25.6339 14.2072C24.844 13.5702 23.6983 13.8007 22.6848 13.8007C21.0423 13.8007 19.7701 12.386 18.9826 10.9399C18.8984 10.7852 18.8071 10.6339 18.7089 10.4865L18.7083 10.4856C18.6266 10.3629 18.5406 10.2437 18.4506 10.128C17.82 9.31802 16.9899 8.68307 16.0389 8.28789C14.9521 7.83626 13.7561 7.71809 12.6023 7.94833C12.4581 7.97711 12.3153 8.01117 12.1743 8.05038C11.1871 8.32481 10.2847 8.85119 9.55678 9.58138C9.50479 9.63354 9.45384 9.68659 9.40394 9.7405C8.65544 10.5492 8.14409 11.5515 7.92893 12.6366C7.90024 12.7813 7.87698 12.9266 7.85911 13.0723C7.73406 14.0923 7.87349 15.1302 8.26741 16.0842C8.32368 16.2205 8.38483 16.3543 8.45068 16.4854C8.91157 17.4032 9.60225 18.1884 10.4581 18.7621C10.6054 18.8608 10.7565 18.9526 10.911 19.0373C12.3524 19.8273 13.7627 21.1035 13.7627 22.7513C13.7627 23.7161 13.5848 24.7933 14.1745 25.5555C14.4262 25.8809 14.6583 26.0751 14.8593 26.0751C13.5771 26.0751 11.985 25.7662 10.4849 25.2728C9.30755 24.9343 8.18298 24.4136 7.15357 23.7235C7.0313 23.6416 6.91072 23.5575 6.79187 23.4712C5.00911 22.178 3.61624 20.4121 2.77212 18.3677C2.71585 18.2314 2.66217 18.0942 2.6111 17.9563C1.845 15.8874 1.66484 13.6428 2.09516 11.4725C2.54628 9.19735 3.64837 7.10432 5.26544 5.44864C5.27252 5.44139 5.27961 5.43415 5.28671 5.42691C5.30801 5.40522 5.3294 5.3836 5.35087 5.36205C7.01457 3.69304 9.13426 2.55643 11.4419 2.09595C13.7495 1.63547 16.1414 1.87181 18.3151 2.77507C20.4889 3.67833 22.3468 5.20795 23.654 7.1705C24.1255 7.87853 24.5178 8.63144 24.8266 9.41552C25.5633 11.1785 26.075 13.2238 26.075 14.8236C26.075 14.6396 25.9119 14.4314 25.6339 14.2072Z" fill="#6949FF"/>
<path d="M16.5313 21.3323C16.5313 18.6808 18.6808 16.5314 21.3323 16.5314C23.9838 16.5314 26.1332 18.6808 26.1332 21.3323V26.1333H21.3323C18.6808 26.1333 16.5313 23.9838 16.5313 21.3323Z" fill="#6949FF"/>
<path d="M14.9197 17.4187C14.6578 17.1568 14.283 17.0551 13.9126 17.0551C12.1771 17.0551 10.7702 15.6482 10.7702 13.9127C10.7702 12.1772 12.1771 10.7702 13.9126 10.7702C15.6481 10.7702 17.0551 12.1772 17.0551 13.9127C17.0551 14.314 17.161 14.7221 17.4448 15.0059L18.0421 15.6032C18.8497 16.4108 20.0789 16.5587 21.2207 16.5327C21.2578 16.5318 21.295 16.5314 21.3323 16.5314C23.9838 16.5314 26.1332 18.6808 26.1332 21.3323C26.1332 23.9838 23.9838 26.1333 21.3323 26.1333C18.6808 26.1333 16.5313 23.9838 16.5313 21.3323C16.5313 21.3213 16.5314 21.3103 16.5314 21.2993C16.5393 20.1352 16.3846 18.8835 15.5614 18.0604L14.9197 17.4187Z" fill="#6949FF"/>
</svg>
