<svg width="160" height="160" viewBox="0 0 160 160" fill="none" xmlns="http://www.w3.org/2000/svg">
<path d="M146.48 81.1844C141.966 77.5445 135.419 78.8615 129.628 78.8615C120.242 78.8615 112.972 70.7772 108.472 62.5141C107.991 61.6302 107.47 60.7657 106.909 59.9233L106.905 59.918C106.438 59.2171 105.947 58.5355 105.432 57.8743C101.829 53.2461 97.0858 49.6178 91.6514 47.3596C85.4408 44.7789 78.6068 44.1036 72.0135 45.4193C71.1894 45.5837 70.3736 45.7784 69.5678 46.0024C63.9266 47.5706 58.7699 50.5785 54.6107 54.751C54.3136 55.049 54.0224 55.3522 53.7373 55.6602C49.4601 60.2811 46.5381 66.0086 45.3086 72.2094C45.1447 73.0362 45.0118 73.8667 44.9097 74.6994C44.1951 80.5278 44.9918 86.4583 47.2428 91.91C47.5644 92.6888 47.9138 93.4534 48.2901 94.2026C50.9237 99.4471 54.8705 103.934 59.7612 107.212C60.6026 107.776 61.4661 108.301 62.3491 108.785C70.5859 113.299 78.6445 120.592 78.6445 130.007C78.6445 135.521 77.6277 141.676 80.9974 146.032C82.4359 147.891 83.7625 149.001 84.9107 149.001C77.584 149.001 68.4862 147.236 59.9143 144.416C53.1865 142.482 46.7604 139.506 40.878 135.563C40.1793 135.095 39.4903 134.614 38.8111 134.122C28.624 126.732 20.6647 116.641 15.8412 104.958C15.5196 104.18 15.2129 103.396 14.921 102.608C10.5433 90.7854 9.51383 77.959 11.9728 65.5573C14.5506 52.5566 20.8483 40.5963 30.0887 31.1353C30.1292 31.0939 30.1697 31.0525 30.2102 31.0112C30.3319 30.8872 30.4542 30.7637 30.5769 30.6405C40.0838 21.1033 52.1962 14.6084 65.3826 11.9771C78.569 9.34581 92.2371 10.6963 104.658 15.8578C117.08 21.0193 127.696 29.76 135.166 40.9745C137.861 45.0204 140.102 49.3227 141.867 53.8032C146.077 63.8776 149.001 75.5649 149.001 84.7063C149.001 83.6549 148.068 82.4651 146.48 81.1844Z" fill="#6949FF"/>
<path d="M94.4652 121.899C94.4652 106.748 106.748 94.4653 121.899 94.4653C137.051 94.4653 149.333 106.748 149.333 121.899V149.333H121.899C106.748 149.333 94.4652 137.051 94.4652 121.899Z" fill="#6949FF"/>
<path d="M85.2561 99.5356C83.7596 98.0391 81.6175 97.4581 79.5012 97.4581C69.5839 97.4581 61.5443 89.4186 61.5443 79.5013C61.5443 69.584 69.5839 61.5444 79.5012 61.5444C89.4184 61.5444 97.458 69.584 97.458 79.5013C97.458 81.7946 98.0633 84.1264 99.6849 85.748L103.098 89.1612C107.713 93.776 114.737 94.6213 121.262 94.4726C121.474 94.4677 121.686 94.4653 121.899 94.4653C137.051 94.4653 149.333 106.748 149.333 121.899C149.333 137.051 137.051 149.333 121.899 149.333C106.748 149.333 94.4652 137.051 94.4652 121.899C94.4652 121.836 94.4654 121.774 94.4658 121.711C94.5106 115.059 93.6267 107.906 88.923 103.202L85.2561 99.5356Z" fill="#6949FF"/>
</svg>
