<svg width="83" height="80" viewBox="0 0 83 80" fill="none" xmlns="http://www.w3.org/2000/svg">
<circle cx="27.7773" cy="78.4442" r="1.55555" fill="white"/>
<circle cx="54.2223" cy="76.0011" r="0.444442" fill="white"/>
<circle cx="4.44407" cy="59.1109" r="2.22221" fill="white"/>
<circle cx="42.3335" cy="40.3332" r="31.3332" fill="white"/>
<circle cx="73.5553" cy="71.3318" r="1.11111" fill="white"/>
<circle cx="75.7771" cy="49.1111" r="1.11111" fill="white"/>
<circle cx="0.444442" cy="33.3331" r="0.444442" fill="white"/>
<path d="M53.5303 43.1361L53.8063 40.5786C53.9518 39.2136 54.0493 38.3136 53.9728 37.7466H53.9998C54.5133 37.7464 55.0112 37.5707 55.411 37.2485C55.8108 36.9264 56.0884 36.4772 56.1977 35.9755C56.307 35.4738 56.2414 34.9499 56.0118 34.4906C55.7823 34.0313 55.4026 33.6644 54.9357 33.4507C54.4689 33.237 53.943 33.1894 53.4453 33.3158C52.9477 33.4422 52.5083 33.735 52.2 34.1456C51.8917 34.5562 51.7331 35.0598 51.7505 35.573C51.768 36.0861 51.9604 36.5778 52.2958 36.9666C51.8068 37.2681 51.1678 37.9056 50.2063 38.8641C49.4638 39.6036 49.0933 39.9726 48.6793 40.0296C48.4499 40.0612 48.2162 40.0285 48.0043 39.9351C47.6233 39.7671 47.3683 39.3111 46.8598 38.3976L44.1748 33.5841C43.8613 33.0216 43.5988 32.5491 43.3618 32.1711C43.9622 31.8651 44.4422 31.366 44.7243 30.754C45.0064 30.142 45.0743 29.4529 44.9169 28.7977C44.7596 28.1425 44.3863 27.5593 43.8571 27.1421C43.3279 26.7249 42.6737 26.498 41.9998 26.498C41.326 26.498 40.6718 26.7249 40.1426 27.1421C39.6134 27.5593 39.24 28.1425 39.0827 28.7977C38.9254 29.4529 38.9933 30.142 39.2754 30.754C39.5575 31.366 40.0374 31.8651 40.6378 32.1711C40.4008 32.5506 40.1383 33.0216 39.8233 33.5841L37.1398 38.3976C36.6298 39.3111 36.3748 39.7671 35.9938 39.9351C35.7819 40.0285 35.5482 40.0612 35.3188 40.0296C34.9063 39.9726 34.5358 39.6036 33.7933 38.8641C32.8318 37.9056 32.1928 37.2681 31.7038 36.9666C32.0393 36.5778 32.2317 36.0861 32.2491 35.573C32.2666 35.0598 32.108 34.5562 31.7997 34.1456C31.4914 33.735 31.052 33.4422 30.5543 33.3158C30.0567 33.1894 29.5308 33.237 29.0639 33.4507C28.5971 33.6644 28.2174 34.0313 27.9878 34.4906C27.7583 34.9499 27.6927 35.4738 27.802 35.9755C27.9113 36.4772 28.1889 36.9264 28.5887 37.2485C28.9885 37.5707 29.4864 37.7464 29.9998 37.7466H30.0268C29.9503 38.3136 30.0478 39.2151 30.1933 40.5786L30.4693 43.1361C30.6223 44.5551 30.7483 45.9066 30.9043 47.1215H53.0953C53.2513 45.9066 53.3773 44.5566 53.5303 43.1361ZM40.3678 53.4966H43.6318C47.8858 53.4966 50.0128 53.4966 51.4318 52.2261C52.0513 51.6711 52.4428 50.6721 52.7263 49.3715H31.2733C31.5568 50.6721 31.9483 51.6726 32.5678 52.2261C33.9868 53.4966 36.1138 53.4966 40.3678 53.4966Z" fill="url(#paint0_linear_3843_4863)"/>
<circle cx="79.3032" cy="12.222" r="3.33332" fill="white"/>
<circle cx="47.3327" cy="1.99978" r="1.11111" fill="white"/>
<circle cx="8.88894" cy="4.44442" r="4.44442" fill="white"/>
<defs>
<linearGradient id="paint0_linear_3843_4863" x1="56.2492" y1="53.4966" x2="22.636" y2="43.2091" gradientUnits="userSpaceOnUse">
<stop stop-color="#F89300"/>
<stop offset="1" stop-color="#FFBB58"/>
</linearGradient>
</defs>
</svg>
