<svg width="24" height="25" viewBox="0 0 24 25" fill="none" xmlns="http://www.w3.org/2000/svg">
<path fill-rule="evenodd" clip-rule="evenodd" d="M7.67009 2.5H16.3401C19.7301 2.5 22.0001 4.88 22.0001 8.42V16.591C22.0001 20.12 19.7301 22.5 16.3401 22.5H7.67009C4.28009 22.5 2.00009 20.12 2.00009 16.591V8.42C2.00009 4.88 4.28009 2.5 7.67009 2.5ZM11.4301 15.49L16.1801 10.74C16.5201 10.4 16.5201 9.85 16.1801 9.5C15.8401 9.16 15.2801 9.16 14.9401 9.5L10.8101 13.63L9.06009 11.88C8.72009 11.54 8.16009 11.54 7.82009 11.88C7.48009 12.22 7.48009 12.77 7.82009 13.12L10.2001 15.49C10.3701 15.66 10.5901 15.74 10.8101 15.74C11.0401 15.74 11.2601 15.66 11.4301 15.49Z" fill="#12D18E"/>
</svg>
