<svg width="24" height="25" viewBox="0 0 24 25" fill="none" xmlns="http://www.w3.org/2000/svg">
<path fill-rule="evenodd" clip-rule="evenodd" d="M7.66979 2.49902H16.3398C19.7298 2.49902 21.9998 4.87902 21.9998 8.41902V16.59C21.9998 20.12 19.7298 22.499 16.3398 22.499H7.66979C4.27979 22.499 1.99979 20.12 1.99979 16.59V8.41902C1.99979 4.87902 4.27979 2.49902 7.66979 2.49902ZM15.0098 15.499C15.3498 15.16 15.3498 14.61 15.0098 14.27L13.2298 12.49L15.0098 10.709C15.3498 10.37 15.3498 9.81002 15.0098 9.47002C14.6698 9.12902 14.1198 9.12902 13.7698 9.47002L11.9998 11.249L10.2198 9.47002C9.86979 9.12902 9.31979 9.12902 8.97979 9.47002C8.63979 9.81002 8.63979 10.37 8.97979 10.709L10.7598 12.49L8.97979 14.26C8.63979 14.61 8.63979 15.16 8.97979 15.499C9.14979 15.669 9.37979 15.76 9.59979 15.76C9.82979 15.76 10.0498 15.669 10.2198 15.499L11.9998 13.73L13.7798 15.499C13.9498 15.68 14.1698 15.76 14.3898 15.76C14.6198 15.76 14.8398 15.669 15.0098 15.499Z" fill="#F75555"/>
</svg>
