<svg width="25" height="24" viewBox="0 0 25 24" fill="none" xmlns="http://www.w3.org/2000/svg">
<path d="M23.7501 12.474C23.7501 11.5511 23.6752 10.8776 23.5132 10.1792H12.9746V14.3447H19.1605C19.0358 15.3799 18.3624 16.9388 16.8657 17.9864L16.8448 18.1258L20.1769 20.7072L20.4077 20.7302C22.5278 18.7721 23.7501 15.8912 23.7501 12.474Z" fill="#4285F4"/>
<path d="M12.9745 23.4489C16.0051 23.4489 18.5493 22.4511 20.4076 20.73L16.8656 17.9862C15.9178 18.6472 14.6457 19.1087 12.9745 19.1087C10.0063 19.1087 7.48701 17.1507 6.58897 14.4443L6.45734 14.4555L2.99258 17.1369L2.94727 17.2629C4.79305 20.9295 8.58444 23.4489 12.9745 23.4489Z" fill="#34A853"/>
<path d="M6.58895 14.4445C6.352 13.7461 6.21486 12.9977 6.21486 12.2245C6.21486 11.4513 6.352 10.703 6.57649 10.0046L6.57021 9.85583L3.06203 7.13135L2.94725 7.18594C2.18651 8.70751 1.75 10.4162 1.75 12.2245C1.75 14.0329 2.18651 15.7415 2.94725 17.263L6.58895 14.4445Z" fill="#FBBC05"/>
<path d="M12.9745 5.34011C15.0822 5.34011 16.5039 6.25053 17.3146 7.01136L20.4824 3.91837C18.5369 2.10998 16.0051 1 12.9745 1C8.58444 1 4.79305 3.51925 2.94727 7.18589L6.5765 10.0045C7.48701 7.29818 10.0063 5.34011 12.9745 5.34011Z" fill="#EB4335"/>
</svg>
