<svg width="24" height="25" viewBox="0 0 24 25" fill="none" xmlns="http://www.w3.org/2000/svg">
<path fill-rule="evenodd" clip-rule="evenodd" d="M12.0011 17.041C11.5871 17.041 11.2511 16.705 11.2511 16.291V4.25C11.2511 3.836 11.5871 3.5 12.0011 3.5C12.4151 3.5 12.7511 3.836 12.7511 4.25V16.291C12.7511 16.705 12.4151 17.041 12.0011 17.041Z" fill="#212121"/>
<path fill-rule="evenodd" clip-rule="evenodd" d="M12.0011 17.041C11.8021 17.041 11.6101 16.962 11.4701 16.82L8.55407 13.893C8.26207 13.599 8.26307 13.124 8.55607 12.832C8.85007 12.54 9.32407 12.54 9.61607 12.834L12.0011 15.229L14.3861 12.834C14.6781 12.54 15.1521 12.54 15.4461 12.832C15.7391 13.124 15.7401 13.599 15.4481 13.893L12.5321 16.82C12.3921 16.962 12.2001 17.041 12.0011 17.041Z" fill="#212121"/>
<mask id="mask0_3673_11285" style="mask-type:luminance" maskUnits="userSpaceOnUse" x="2" y="8" width="20" height="14">
<path fill-rule="evenodd" clip-rule="evenodd" d="M2.00024 8.23242H22V21.9764H2.00024V8.23242Z" fill="white"/>
</mask>
<g mask="url(#mask0_3673_11285)">
<path fill-rule="evenodd" clip-rule="evenodd" d="M17.5752 21.9764H6.43524C3.99024 21.9764 2.00024 19.9874 2.00024 17.5414V12.6564C2.00024 10.2164 3.98524 8.23242 6.42624 8.23242H7.36724C7.78124 8.23242 8.11724 8.56842 8.11724 8.98242C8.11724 9.39642 7.78124 9.73242 7.36724 9.73242H6.42624C4.81224 9.73242 3.50024 11.0434 3.50024 12.6564V17.5414C3.50024 19.1604 4.81624 20.4764 6.43524 20.4764H17.5752C19.1872 20.4764 20.5002 19.1634 20.5002 17.5514V12.6674C20.5002 11.0484 19.1832 9.73242 17.5662 9.73242H16.6342C16.2202 9.73242 15.8842 9.39642 15.8842 8.98242C15.8842 8.56842 16.2202 8.23242 16.6342 8.23242H17.5662C20.0112 8.23242 22.0002 10.2224 22.0002 12.6674V17.5514C22.0002 19.9914 20.0142 21.9764 17.5752 21.9764Z" fill="#212121"/>
</g>
</svg>
