<svg width="28" height="28" viewBox="0 0 28 28" fill="none" xmlns="http://www.w3.org/2000/svg">
<path fill-rule="evenodd" clip-rule="evenodd" d="M18.9014 20.6457C18.4184 20.6457 18.0217 20.2537 18.0217 19.7707C18.0217 19.2877 18.4079 18.8957 18.8909 18.8957H18.9014C19.3844 18.8957 19.7764 19.2877 19.7764 19.7707C19.7764 20.2537 19.3844 20.6457 18.9014 20.6457Z" fill="#212121"/>
<path fill-rule="evenodd" clip-rule="evenodd" d="M13.7241 20.6457C13.2411 20.6457 12.8445 20.2537 12.8445 19.7707C12.8445 19.2877 13.2306 18.8957 13.7136 18.8957H13.7241C14.2071 18.8957 14.5991 19.2877 14.5991 19.7707C14.5991 20.2537 14.2071 20.6457 13.7241 20.6457Z" fill="#212121"/>
<path fill-rule="evenodd" clip-rule="evenodd" d="M8.53635 20.6457C8.05335 20.6457 7.65552 20.2537 7.65552 19.7707C7.65552 19.2877 8.04285 18.8957 8.52585 18.8957H8.53635C9.01935 18.8957 9.41135 19.2877 9.41135 19.7707C9.41135 20.2537 9.01935 20.6457 8.53635 20.6457Z" fill="#212121"/>
<path fill-rule="evenodd" clip-rule="evenodd" d="M18.9014 16.1112C18.4184 16.1112 18.0217 15.7192 18.0217 15.2362C18.0217 14.7532 18.4079 14.3612 18.8909 14.3612H18.9014C19.3844 14.3612 19.7764 14.7532 19.7764 15.2362C19.7764 15.7192 19.3844 16.1112 18.9014 16.1112Z" fill="#212121"/>
<path fill-rule="evenodd" clip-rule="evenodd" d="M13.7241 16.1112C13.2411 16.1112 12.8445 15.7192 12.8445 15.2362C12.8445 14.7532 13.2306 14.3612 13.7136 14.3612H13.7241C14.2071 14.3612 14.5991 14.7532 14.5991 15.2362C14.5991 15.7192 14.2071 16.1112 13.7241 16.1112Z" fill="#212121"/>
<path fill-rule="evenodd" clip-rule="evenodd" d="M8.53635 16.1112C8.05335 16.1112 7.65552 15.7192 7.65552 15.2362C7.65552 14.7532 8.04285 14.3612 8.52585 14.3612H8.53635C9.01935 14.3612 9.41135 14.7532 9.41135 15.2362C9.41135 15.7192 9.01935 16.1112 8.53635 16.1112Z" fill="#212121"/>
<path fill-rule="evenodd" clip-rule="evenodd" d="M24.1108 11.555H3.31616C2.83316 11.555 2.44116 11.163 2.44116 10.68C2.44116 10.197 2.83316 9.80499 3.31616 9.80499H24.1108C24.5938 9.80499 24.9858 10.197 24.9858 10.68C24.9858 11.163 24.5938 11.555 24.1108 11.555Z" fill="#212121"/>
<path fill-rule="evenodd" clip-rule="evenodd" d="M18.4258 6.75616C17.9428 6.75616 17.5508 6.36416 17.5508 5.88116V2.04166C17.5508 1.55866 17.9428 1.16666 18.4258 1.16666C18.9088 1.16666 19.3008 1.55866 19.3008 2.04166V5.88116C19.3008 6.36416 18.9088 6.75616 18.4258 6.75616Z" fill="#212121"/>
<path fill-rule="evenodd" clip-rule="evenodd" d="M9.00122 6.75616C8.51822 6.75616 8.12622 6.36416 8.12622 5.88116V2.04166C8.12622 1.55866 8.51822 1.16666 9.00122 1.16666C9.48422 1.16666 9.87622 1.55866 9.87622 2.04166V5.88116C9.87622 6.36416 9.48422 6.75616 9.00122 6.75616Z" fill="#212121"/>
<mask id="mask0_3588_6326" style="mask-type:luminance" maskUnits="userSpaceOnUse" x="2" y="3" width="24" height="24">
<path fill-rule="evenodd" clip-rule="evenodd" d="M2.33325 3.00894H25.0833V26.25H2.33325V3.00894Z" fill="white"/>
</mask>
<g mask="url(#mask0_3588_6326)">
<path fill-rule="evenodd" clip-rule="evenodd" d="M8.77442 4.75894C5.74925 4.75894 4.08325 6.37244 4.08325 9.30194V19.8591C4.08325 22.8528 5.74925 24.5001 8.77442 24.5001H18.6421C21.6673 24.5001 23.3333 22.8831 23.3333 19.9478V9.30194C23.3379 7.86111 22.9506 6.74111 22.1818 5.97111C21.3908 5.17778 20.1716 4.75894 18.6526 4.75894H8.77442ZM18.6421 26.2501H8.77442C4.80192 26.2501 2.33325 23.8013 2.33325 19.8591V9.30194C2.33325 5.41928 4.80192 3.00894 8.77442 3.00894H18.6526C20.6464 3.00894 22.2949 3.60627 23.4208 4.73444C24.5139 5.83228 25.0891 7.41078 25.0833 9.30428V19.9478C25.0833 23.8351 22.6146 26.2501 18.6421 26.2501Z" fill="#212121"/>
</g>
</svg>
