<svg width="19" height="19" viewBox="0 0 19 19" fill="none" xmlns="http://www.w3.org/2000/svg">
<path d="M15.0417 8.70768H10.2917V3.95768C10.2917 3.74772 10.2083 3.54636 10.0598 3.39789C9.91132 3.24942 9.70996 3.16602 9.5 3.16602C9.29003 3.16602 9.08867 3.24942 8.9402 3.39789C8.79174 3.54636 8.70833 3.74772 8.70833 3.95768V8.70768H3.95833C3.74837 8.70768 3.547 8.79109 3.39854 8.93956C3.25007 9.08802 3.16666 9.28939 3.16666 9.49935C3.16666 9.70931 3.25007 9.91068 3.39854 10.0591C3.547 10.2076 3.74837 10.291 3.95833 10.291H8.70833V15.041C8.70833 15.251 8.79174 15.4523 8.9402 15.6008C9.08867 15.7493 9.29003 15.8327 9.5 15.8327C9.70996 15.8327 9.91132 15.7493 10.0598 15.6008C10.2083 15.4523 10.2917 15.251 10.2917 15.041V10.291H15.0417C15.2516 10.291 15.453 10.2076 15.6015 10.0591C15.7499 9.91068 15.8333 9.70931 15.8333 9.49935C15.8333 9.28939 15.7499 9.08802 15.6015 8.93956C15.453 8.79109 15.2516 8.70768 15.0417 8.70768Z" fill="#6949FF"/>
</svg>
