<svg width="72" height="72" viewBox="0 0 72 72" fill="none" xmlns="http://www.w3.org/2000/svg">
<path d="M56.13 21.63C55.8511 21.3488 55.5193 21.1256 55.1537 20.9733C54.7881 20.821 54.396 20.7426 54 20.7426C53.6039 20.7426 53.2118 20.821 52.8462 20.9733C52.4807 21.1256 52.1489 21.3488 51.87 21.63L29.52 44.01L20.13 34.59C19.8404 34.3103 19.4986 34.0904 19.124 33.9427C18.7495 33.7951 18.3495 33.7227 17.9469 33.7297C17.5444 33.7367 17.1472 33.8228 16.7779 33.9833C16.4087 34.1438 16.0747 34.3754 15.795 34.665C15.5153 34.9546 15.2953 35.2964 15.1477 35.671C15.0001 36.0455 14.9277 36.4455 14.9347 36.848C14.9416 37.2506 15.0278 37.6478 15.1883 38.017C15.3488 38.3863 15.5804 38.7203 15.87 39L27.39 50.52C27.6689 50.8012 28.0007 51.0244 28.3662 51.1767C28.7318 51.329 29.1239 51.4074 29.52 51.4074C29.916 51.4074 30.3081 51.329 30.6737 51.1767C31.0393 51.0244 31.3711 50.8012 31.65 50.52L56.13 26.04C56.4345 25.7591 56.6775 25.4181 56.8437 25.0386C57.01 24.6591 57.0958 24.2493 57.0958 23.835C57.0958 23.4207 57.01 23.0109 56.8437 22.6314C56.6775 22.2519 56.4345 21.9109 56.13 21.63Z" fill="white"/>
</svg>
