<svg width="28" height="28" viewBox="0 0 28 28" fill="none" xmlns="http://www.w3.org/2000/svg">
<path fill-rule="evenodd" clip-rule="evenodd" d="M18.4914 2.91767C19.2276 2.91767 19.9626 3.0215 20.6614 3.256C24.9676 4.656 26.5193 9.381 25.2231 13.511C24.4881 15.6215 23.2864 17.5477 21.7126 19.1215C19.4598 21.3032 16.9876 23.2398 14.3264 24.9082L14.0348 25.0843L13.7314 24.8965C11.0609 23.2398 8.57477 21.3032 6.30093 19.1098C4.7376 17.536 3.53477 15.6215 2.7881 13.511C1.46977 9.381 3.02143 4.656 7.37427 3.2315C7.7126 3.11483 8.06143 3.03317 8.41143 2.98767H8.55143C8.87927 2.93983 9.20477 2.91767 9.53143 2.91767H9.65977C10.3948 2.93983 11.1064 3.06817 11.7959 3.30267H11.8648C11.9114 3.32483 11.9464 3.34933 11.9698 3.3715C12.2276 3.45433 12.4714 3.54767 12.7048 3.676L13.1481 3.87433C13.2552 3.93147 13.3755 4.01877 13.4794 4.09422C13.5452 4.14202 13.6045 4.18507 13.6498 4.21267C13.6688 4.2239 13.6882 4.2352 13.7077 4.24658C13.8077 4.30498 13.9119 4.3658 13.9998 4.43317C15.2959 3.44267 16.8698 2.906 18.4914 2.91767ZM21.5948 11.3177C22.0731 11.3048 22.4814 10.921 22.5164 10.4298V10.291C22.5514 8.6565 21.5609 7.176 20.0548 6.60433C19.5764 6.43983 19.0514 6.69767 18.8764 7.18767C18.7131 7.67767 18.9698 8.21433 19.4598 8.38817C20.2076 8.66817 20.7081 9.40433 20.7081 10.2198V10.256C20.6859 10.5232 20.7664 10.781 20.9298 10.9793C21.0931 11.1777 21.3381 11.2932 21.5948 11.3177Z" fill="url(#paint0_linear_3651_4350)"/>
<defs>
<linearGradient id="paint0_linear_3651_4350" x1="25.6667" y1="25.0843" x2="-1.86752" y2="16.6809" gradientUnits="userSpaceOnUse">
<stop stop-color="#F5484A"/>
<stop offset="1" stop-color="#FF7475"/>
</linearGradient>
</defs>
</svg>
