<svg width="28" height="28" viewBox="0 0 28 28" fill="none" xmlns="http://www.w3.org/2000/svg">
<path fill-rule="evenodd" clip-rule="evenodd" d="M15.4165 5.6898C11.1322 6.8694 6.67272 8.45352 4.72907 9.57544C4.26481 9.84344 4.1623 10.0222 4.14399 10.0616C4.15262 10.0918 4.18645 10.1644 4.30439 10.2895C4.52057 10.5188 4.90144 10.7877 5.4502 11.0766C5.98723 11.3594 6.63336 11.6348 7.33427 11.8953C8.73578 12.4164 10.297 12.8565 11.5177 13.1678C12.1259 13.323 12.645 13.445 13.0114 13.5281C13.1946 13.5697 13.3394 13.6014 13.4378 13.6227L13.5497 13.6467L13.5777 13.6525L13.5859 13.6542C13.9276 13.725 14.1949 13.9921 14.2656 14.3338L14.2674 14.3422L14.2733 14.3702L14.2972 14.4821C14.3185 14.5805 14.3503 14.7253 14.3918 14.9085C14.4749 15.2749 14.597 15.7941 14.7521 16.4022C15.0635 17.623 15.5036 19.1841 16.0246 20.5857C16.2852 21.2866 16.5606 21.9327 16.8433 22.4697C17.1322 23.0185 17.4012 23.3994 17.6304 23.6155C17.7555 23.7335 17.8281 23.7673 17.8583 23.7759C17.8977 23.7576 18.0765 23.6551 18.3445 23.1909C19.4664 21.2472 21.0505 16.7877 22.2301 12.5034C22.8159 10.3758 23.2911 8.33056 23.5547 6.70743C23.6868 5.89391 23.7622 5.20748 23.776 4.67974C23.7815 4.46936 23.7769 4.29513 23.7648 4.15517C23.6248 4.14303 23.4506 4.1384 23.2402 4.1439C22.7125 4.15772 22.026 4.23315 21.2125 4.36526C19.5894 4.62884 17.5441 5.104 15.4165 5.6898ZM17.875 23.7781C17.8751 23.7787 17.8713 23.7791 17.8632 23.7772C17.8708 23.7765 17.8749 23.7775 17.875 23.7781ZM12.6739 15.246C12.6577 15.2423 12.6412 15.2386 12.6243 15.2348C12.2456 15.1489 11.711 15.0232 11.0852 14.8635C9.83772 14.5454 8.20919 14.0876 6.72446 13.5357C5.98225 13.2597 5.26113 12.9548 4.63491 12.6251C4.02042 12.3016 3.44204 11.9259 3.03109 11.49C2.62154 11.0556 2.25786 10.4219 2.43807 9.6645C2.60527 8.96175 3.17959 8.44925 3.85419 8.05982C6.00806 6.81656 10.658 5.18484 14.9519 4.00258C17.1134 3.40745 19.2245 2.91517 20.932 2.63789C21.7838 2.49956 22.5563 2.41121 23.1944 2.3945C23.5135 2.38615 23.8162 2.39517 24.088 2.4301C24.3492 2.46369 24.6383 2.52788 24.8946 2.66437C25.0481 2.74614 25.1738 2.87182 25.2556 3.02535C25.392 3.28163 25.4562 3.57072 25.4898 3.83196C25.5248 4.10372 25.5338 4.40642 25.5254 4.72553C25.5087 5.36366 25.4204 6.13614 25.282 6.98794C25.0048 8.69546 24.5125 10.8065 23.9173 12.968C22.7351 17.2619 21.1034 21.9118 19.8601 24.0657C19.4707 24.7403 18.9582 25.3147 18.2554 25.4819C17.498 25.6621 16.8643 25.2984 16.4299 24.8888C15.9941 24.4779 15.6184 23.8995 15.2948 23.285C14.9651 22.6588 14.6602 21.9377 14.3843 21.1955C13.8323 19.7107 13.3746 18.0822 13.0564 16.8348C12.8967 16.2089 12.7711 15.6743 12.6851 15.2956C12.6813 15.2788 12.6776 15.2622 12.6739 15.246ZM4.14182 10.045C4.14246 10.0451 4.1434 10.0491 4.14272 10.0567C4.14085 10.0487 4.14119 10.0448 4.14182 10.045Z" fill="#212121"/>
<path fill-rule="evenodd" clip-rule="evenodd" d="M25.102 2.8178C25.4437 3.15951 25.4437 3.71353 25.102 4.05524L14.0275 15.1297C13.6858 15.4714 13.1318 15.4714 12.7901 15.1297C12.4484 14.788 12.4484 14.234 12.7901 13.8923L23.8645 2.8178C24.2062 2.4761 24.7603 2.4761 25.102 2.8178Z" fill="#212121"/>
</svg>
