<svg width="28" height="28" viewBox="0 0 28 28" fill="none" xmlns="http://www.w3.org/2000/svg">
<path fill-rule="evenodd" clip-rule="evenodd" d="M14.2318 26.25H14.2295C12.9216 26.2488 11.6838 25.6725 10.7446 24.626C10.4215 24.2678 10.4506 23.7136 10.81 23.3916C11.1693 23.0673 11.7223 23.0965 12.0455 23.457C12.6498 24.1301 13.4256 24.5 14.2306 24.5H14.2318C15.0403 24.5 15.8196 24.1301 16.4251 23.4558C16.7495 23.0976 17.3025 23.0685 17.6606 23.3916C18.02 23.7148 18.0491 24.269 17.726 24.6271C16.7833 25.6736 15.5431 26.25 14.2318 26.25Z" fill="#212121"/>
<mask id="mask0_3592_10224" style="mask-type:luminance" maskUnits="userSpaceOnUse" x="3" y="1" width="23" height="21">
<path fill-rule="evenodd" clip-rule="evenodd" d="M3.50049 1.16656H25.0802V21.4059H3.50049V1.16656Z" fill="white"/>
</mask>
<g mask="url(#mask0_3592_10224)">
<path fill-rule="evenodd" clip-rule="evenodd" d="M14.2884 2.91659C10.2109 2.91659 7.36892 6.11092 7.36892 8.97742C7.36892 11.4029 6.69575 12.5241 6.10075 13.5134C5.62358 14.3079 5.24675 14.9356 5.24675 16.2994C5.44158 18.4998 6.89408 19.6559 14.2884 19.6559C21.6419 19.6559 23.1399 18.4484 23.3336 16.2236C23.3301 14.9356 22.9533 14.3079 22.4761 13.5134C21.8811 12.5241 21.2079 11.4029 21.2079 8.97742C21.2079 6.11092 18.3659 2.91659 14.2884 2.91659ZM14.2883 21.4059C8.83297 21.4059 3.90264 21.0209 3.50014 16.3741C3.49664 14.4514 4.08347 13.4737 4.60147 12.6127C5.1253 11.7401 5.6188 10.9176 5.6188 8.9774C5.6188 5.20557 9.10247 1.16656 14.2883 1.16656C19.4741 1.16656 22.9578 5.20557 22.9578 8.9774C22.9578 10.9176 23.4513 11.7401 23.9751 12.6127C24.4931 13.4737 25.08 14.4514 25.08 16.2994C24.6728 21.0209 19.7436 21.4059 14.2883 21.4059Z" fill="#212121"/>
</g>
</svg>
