<svg width="186" height="180" viewBox="0 0 186 180" fill="none" xmlns="http://www.w3.org/2000/svg">
<circle cx="62.5334" cy="176.5" r="3.5" fill="#A592FF"/>
<circle cx="122.033" cy="171" r="1" fill="#A592FF"/>
<circle cx="10.0334" cy="133" r="5" fill="#A592FF"/>
<circle cx="95.5002" cy="91" r="70.5" fill="url(#paint0_linear_3673_6793)"/>
<circle cx="165.533" cy="160.5" r="2.5" fill="#A592FF"/>
<circle cx="170.533" cy="110.5" r="2.5" fill="#A592FF"/>
<circle cx="1.03345" cy="75" r="1" fill="#A592FF"/>
<path fill-rule="evenodd" clip-rule="evenodd" d="M85.1755 66.4995H106.85C115.325 66.4995 121 72.4495 121 81.2995V101.727C121 110.55 115.325 116.5 106.85 116.5H85.1755C76.7005 116.5 71.0005 110.55 71.0005 101.727V81.2995C71.0005 72.4495 76.7005 66.4995 85.1755 66.4995ZM94.5755 98.9745L106.45 87.0995C107.3 86.2495 107.3 84.8745 106.45 83.9995C105.6 83.1495 104.2 83.1495 103.35 83.9995L93.0255 94.3245L88.6505 89.9495C87.8005 89.0995 86.4005 89.0995 85.5505 89.9495C84.7005 90.7995 84.7005 92.1745 85.5505 93.0495L91.5005 98.9745C91.9255 99.3995 92.4755 99.5995 93.0255 99.5995C93.6005 99.5995 94.1505 99.3995 94.5755 98.9745Z" fill="white"/>
<circle cx="178.467" cy="27.5" r="7.5" fill="#A592FF"/>
<circle cx="106.533" cy="4.5" r="2.5" fill="#A592FF"/>
<circle cx="20.0334" cy="10" r="10" fill="#A592FF"/>
<defs>
<linearGradient id="paint0_linear_3673_6793" x1="166" y1="161.5" x2="-1.7771" y2="112.855" gradientUnits="userSpaceOnUse">
<stop stop-color="#6949FF"/>
<stop offset="1" stop-color="#876DFF"/>
</linearGradient>
</defs>
</svg>
