<svg width="28" height="28" viewBox="0 0 28 28" fill="none" xmlns="http://www.w3.org/2000/svg">
<path d="M23.5713 6.903C23.5713 6.00047 23.2127 5.1349 22.5745 4.49672C21.9363 3.85853 21.0708 3.5 20.1682 3.5H8.12685C7.22432 3.5 6.35876 3.85853 5.72057 4.49672C5.08238 5.1349 4.72385 6.00047 4.72385 6.903V19.7643C4.72385 21.1286 6.36776 21.8186 7.34155 20.8616L11.5613 16.7152C11.5684 16.708 11.5754 16.7007 11.5822 16.6932L13.5978 14.7194L13.6847 14.6451C13.8348 14.5358 14.0187 14.4832 14.2039 14.4966C14.3891 14.51 14.5635 14.5886 14.6962 14.7184L16.8741 16.8513L17.984 15.7414L15.7957 13.597L15.6606 13.4755C15.2125 13.0996 14.6405 12.9038 14.0561 12.9263C13.4716 12.9487 12.9164 13.1878 12.4984 13.597L7.83681 18.1622H7.84728L6.29447 19.6878V6.903C6.29447 5.89153 7.11538 5.07062 8.12685 5.07062H20.1682C21.1808 5.07062 22.0006 5.89153 22.0006 6.903V12.1195C22.5032 11.9206 23.0414 11.8442 23.5713 11.8892V6.903ZM19.9107 9.52279C19.9107 8.89727 19.6622 8.29736 19.2199 7.85505C18.7776 7.41274 18.1777 7.16425 17.5521 7.16425C16.9266 7.16425 16.3267 7.41274 15.8844 7.85505C15.4421 8.29736 15.1936 8.89727 15.1936 9.52279C15.1936 10.1483 15.4421 10.7482 15.8844 11.1905C16.3267 11.6328 16.9266 11.8813 17.5521 11.8813C18.1777 11.8813 18.7776 11.6328 19.2199 11.1905C19.6622 10.7482 19.9107 10.1483 19.9107 9.52279ZM16.7642 9.52279C16.7642 9.31382 16.8472 9.11341 16.995 8.96564C17.1427 8.81788 17.3432 8.73487 17.5521 8.73487C17.7611 8.73487 17.9615 8.81788 18.1093 8.96564C18.257 9.11341 18.3401 9.31382 18.3401 9.52279C18.3401 9.73176 18.257 9.93218 18.1093 10.0799C17.9615 10.2277 17.7611 10.3107 17.5521 10.3107C17.3432 10.3107 17.1427 10.2277 16.995 10.0799C16.8472 9.93218 16.7642 9.73176 16.7642 9.52279ZM15.4009 19.8051L21.5808 13.6252C21.803 13.403 22.0668 13.2266 22.3571 13.1063C22.6475 12.986 22.9587 12.924 23.273 12.924C23.5873 12.9239 23.8985 12.9858 24.1889 13.106C24.4793 13.2263 24.7432 13.4025 24.9654 13.6247C25.1877 13.8469 25.364 14.1107 25.4844 14.4011C25.6047 14.6914 25.6666 15.0027 25.6667 15.317C25.6667 15.6312 25.6049 15.9425 25.4846 16.2329C25.3644 16.5233 25.1882 16.7871 24.966 17.0094L18.7851 23.1893C18.425 23.5498 17.9737 23.8057 17.4794 23.9295L15.5632 24.4081C15.5117 24.4215 15.4591 24.431 15.4061 24.4363C14.7884 24.6499 12.2869 25.0373 11.399 24.3442C10.7979 23.8751 10.9173 22.9474 11.1707 22.4406C11.2126 22.3589 11.1498 22.2521 11.0608 22.2668C10.3697 22.3746 9.75925 22.738 9.14776 23.1034C8.32789 23.5934 7.50384 24.0835 6.47875 23.9568C5.45367 23.829 4.94164 23.1966 4.68825 22.6427C4.58459 22.4165 4.87673 22.2228 5.09452 22.3422C5.5856 22.6092 6.25259 22.8615 6.8023 22.7401C7.19496 22.6521 7.74886 22.2605 8.36873 21.8218C9.48491 21.0333 10.8158 20.0909 11.8157 20.4941C12.6953 20.8469 13.3444 21.6982 12.8942 22.7066C12.8398 22.8301 12.8942 22.983 13.0272 23.0133C13.4701 23.1149 13.8418 23.0825 14.2135 22.9034L14.6617 21.1108C14.7852 20.6166 15.0407 20.1653 15.4009 19.8051Z" fill="#212121"/>
</svg>
