<svg width="24" height="25" viewBox="0 0 24 25" fill="none" xmlns="http://www.w3.org/2000/svg">
<path fill-rule="evenodd" clip-rule="evenodd" d="M13.1943 13.6943H21.4999V21.9999H13.1943V13.6943ZM14.6943 15.1943V20.4999H19.9999V15.1943H14.6943Z" fill="#212121"/>
<path fill-rule="evenodd" clip-rule="evenodd" d="M16.5977 18.6455L16.5977 17.0483L18.0977 17.0483L18.0977 18.6455L16.5977 18.6455Z" fill="#212121"/>
<path fill-rule="evenodd" clip-rule="evenodd" d="M2.5 13.6943H10.8056V21.9999H2.5V13.6943ZM4 15.1943V20.4999H9.30556V15.1943H4Z" fill="#212121"/>
<path fill-rule="evenodd" clip-rule="evenodd" d="M5.90234 18.6455L5.90234 17.0483L7.40234 17.0483L7.40234 18.6455L5.90234 18.6455Z" fill="#212121"/>
<path fill-rule="evenodd" clip-rule="evenodd" d="M13.1943 3H17.1249V4.5H14.6943V8.61973H13.1943V3ZM18.2985 3H21.4999V6.20139H19.9999V4.5H18.2985V3ZM21.4999 7.375V11.3056H18.2985V9.80556H19.9999V7.375H21.4999ZM13.1943 9.80556H16.9145V11.3056H13.1943V9.80556Z" fill="#212121"/>
<path fill-rule="evenodd" clip-rule="evenodd" d="M18.8467 9.08398H15.5176V5.3656H17.0176V7.58398H18.8467V9.08398Z" fill="#212121"/>
<path fill-rule="evenodd" clip-rule="evenodd" d="M17.9436 6.86523L17.9436 5.35523L19.4436 5.35523L19.4436 6.86523L17.9436 6.86523Z" fill="#212121"/>
<path fill-rule="evenodd" clip-rule="evenodd" d="M2.5 3H10.8056V11.3056H2.5V3ZM4 4.5V9.80556H9.30556V4.5H4Z" fill="#212121"/>
<path fill-rule="evenodd" clip-rule="evenodd" d="M5.90234 7.95117L5.90234 6.35395L7.40234 6.35395L7.40234 7.95117L5.90234 7.95117Z" fill="#212121"/>
</svg>
