<svg width="28" height="28" viewBox="0 0 28 28" fill="none" xmlns="http://www.w3.org/2000/svg">
<mask id="mask0_3651_11495" style="mask-type:luminance" maskUnits="userSpaceOnUse" x="2" y="3" width="25" height="24">
<path fill-rule="evenodd" clip-rule="evenodd" d="M2.33334 3.5H26.2179V26.2512H2.33334V3.5Z" fill="white"/>
</mask>
<g mask="url(#mask0_3651_11495)">
<path fill-rule="evenodd" clip-rule="evenodd" d="M4.46099 14.1436C6.09665 19.2326 12.5588 23.3475 14.2762 24.366C15.9993 23.337 22.5082 19.1766 24.0913 14.1483C25.1308 10.898 24.166 6.7808 20.3323 5.5453C18.475 4.94914 16.3085 5.31197 14.8128 6.4693C14.5002 6.70964 14.0662 6.7143 13.7512 6.4763C12.1668 5.28514 10.0972 4.9363 8.21065 5.5453C4.38282 6.77964 3.42149 10.8968 4.46099 14.1436ZM14.2773 26.2513C14.1327 26.2513 13.9892 26.2163 13.8585 26.1451C13.4933 25.9456 4.89149 21.2043 2.79499 14.678C2.79382 14.678 2.79382 14.6768 2.79382 14.6768C1.47782 10.5678 2.94315 5.40414 7.67399 3.8793C9.89532 3.16064 12.3162 3.4768 14.2738 4.7123C16.1708 3.51297 18.6908 3.18164 20.8678 3.8793C25.6033 5.40647 27.0733 10.569 25.7585 14.6768C23.7297 21.1285 15.0648 25.941 14.6973 26.1428C14.5667 26.2151 14.422 26.2513 14.2773 26.2513Z" fill="url(#paint0_linear_3651_11495)"/>
</g>
<path fill-rule="evenodd" clip-rule="evenodd" d="M21.1793 12.396C20.7278 12.396 20.3452 12.0495 20.3078 11.5921C20.2308 10.6331 19.5892 9.82348 18.6757 9.52831C18.2148 9.37898 17.9628 8.88548 18.111 8.42698C18.2615 7.96731 18.7503 7.71764 19.2123 7.86231C20.8025 8.37681 21.9167 9.78498 22.0532 11.4498C22.0917 11.9316 21.7335 12.354 21.2517 12.3925C21.2272 12.3948 21.2038 12.396 21.1793 12.396Z" fill="url(#paint1_linear_3651_11495)"/>
<defs>
<linearGradient id="paint0_linear_3651_11495" x1="26.2179" y1="26.2513" x2="-1.97962" y2="17.6683" gradientUnits="userSpaceOnUse">
<stop stop-color="#F5484A"/>
<stop offset="1" stop-color="#FF7475"/>
</linearGradient>
<linearGradient id="paint1_linear_3651_11495" x1="22.056" y1="12.396" x2="17.2212" y2="11.1741" gradientUnits="userSpaceOnUse">
<stop stop-color="#F5484A"/>
<stop offset="1" stop-color="#FF7475"/>
</linearGradient>
</defs>
</svg>
