<svg width="28" height="28" viewBox="0 0 28 28" fill="none" xmlns="http://www.w3.org/2000/svg">
<path fill-rule="evenodd" clip-rule="evenodd" d="M11.4371 17.7947C12.1656 18.2886 13.0535 18.5872 13.9984 18.5872C16.5028 18.5872 18.5404 16.5313 18.5404 14.0043C18.5404 13.051 18.2445 12.1551 17.755 11.42L16.5142 12.672C16.7191 13.0625 16.8329 13.5219 16.8329 14.0043C16.8329 15.5779 15.5579 16.8643 13.9984 16.8643C13.5203 16.8643 13.0649 16.7495 12.6779 16.5427L11.4371 17.7947ZM21.5002 7.64114C23.1508 9.15728 24.551 11.2018 25.5983 13.6598C25.6894 13.878 25.6894 14.1307 25.5983 14.3374C23.1622 20.0574 18.825 23.4802 13.9984 23.4802H13.987C11.79 23.4802 9.68399 22.7566 7.82846 21.4357L5.62004 23.664C5.44929 23.8363 5.233 23.9167 5.01671 23.9167C4.80042 23.9167 4.57275 23.8363 4.41338 23.664C4.12879 23.3769 4.08325 22.9174 4.31093 22.5843L4.34508 22.5384L21.1814 5.5507C21.2042 5.52773 21.227 5.50476 21.2384 5.48179L21.2384 5.48177C21.2611 5.45881 21.2839 5.43584 21.2953 5.41287L22.3653 4.33319C22.7068 4.0001 23.2419 4.0001 23.572 4.33319C23.9135 4.66629 23.9135 5.21761 23.572 5.5507L21.5002 7.64114ZM9.44801 14.0088C9.44801 14.3075 9.48216 14.6061 9.52769 14.8818L5.31576 19.1316C4.1774 17.7992 3.18702 16.1912 2.40155 14.3419C2.31048 14.1352 2.31048 13.8825 2.40155 13.6642C4.83765 7.94426 9.1748 4.53293 13.9901 4.53293H14.0015C15.6293 4.53293 17.2116 4.92345 18.6687 5.65855L14.8666 9.49486C14.5934 9.44891 14.2974 9.41445 14.0015 9.41445C11.4857 9.41445 9.44801 11.4704 9.44801 14.0088Z" fill="#6949FF"/>
</svg>
