<svg width="24" height="24" viewBox="0 0 24 24" fill="none" xmlns="http://www.w3.org/2000/svg">
<path d="M0 8C0 3.58172 3.58172 0 8 0H16C20.4183 0 24 3.58172 24 8V16C24 20.4183 20.4183 24 16 24H8C3.58172 24 0 20.4183 0 16V8Z" fill="#6949FF"/>
<path fill-rule="evenodd" clip-rule="evenodd" d="M18.0604 7.93934C18.6462 8.52513 18.6462 9.47487 18.0604 10.0607L12.0604 16.0607C11.4746 16.6464 10.5249 16.6464 9.9391 16.0607L6.9391 13.0607C6.35331 12.4749 6.35331 11.5251 6.9391 10.9393C7.52488 10.3536 8.47463 10.3536 9.06042 10.9393L10.9998 12.8787L15.9391 7.93934C16.5249 7.35355 17.4746 7.35355 18.0604 7.93934Z" fill="white"/>
</svg>
