<svg width="25" height="24" viewBox="0 0 25 24" fill="none" xmlns="http://www.w3.org/2000/svg">
<path d="M22.71 6C21.94 6.35 21.11 6.58 20.25 6.69C21.13 6.16 21.81 5.32 22.13 4.31C21.3 4.81 20.38 5.16 19.41 5.36C18.62 4.5 17.51 4 16.25 4C13.9 4 11.98 5.92 11.98 8.29C11.98 8.63 12.02 8.96 12.09 9.27C8.53004 9.09 5.36004 7.38 3.25004 4.79C2.88004 5.42 2.67004 6.16 2.67004 6.94C2.67004 8.43 3.42004 9.75 4.58004 10.5C3.87004 10.5 3.21004 10.3 2.63004 10V10.03C2.63004 12.11 4.11004 13.85 6.07004 14.24C5.44077 14.4122 4.78013 14.4362 4.14004 14.31C4.41165 15.1625 4.94358 15.9084 5.66106 16.4429C6.37854 16.9775 7.24549 17.2737 8.14004 17.29C6.62367 18.4904 4.74404 19.1393 2.81004 19.13C2.47004 19.13 2.13004 19.11 1.79004 19.07C3.69004 20.29 5.95004 21 8.37004 21C16.25 21 20.58 14.46 20.58 8.79C20.58 8.6 20.58 8.42 20.57 8.23C21.41 7.63 22.13 6.87 22.71 6Z" fill="#1DA1F2"/>
</svg>
