<svg width="24" height="25" viewBox="0 0 24 25" fill="none" xmlns="http://www.w3.org/2000/svg">
<path fill-rule="evenodd" clip-rule="evenodd" d="M7.79248 9.71777C7.79248 9.30356 8.12827 8.96777 8.54248 8.96777H15.3975C15.8117 8.96777 16.1475 9.30356 16.1475 9.71777C16.1475 10.132 15.8117 10.4678 15.3975 10.4678H8.54248C8.12827 10.4678 7.79248 10.132 7.79248 9.71777Z" fill="#212121"/>
<path fill-rule="evenodd" clip-rule="evenodd" d="M7.9588 2.52799C9.03824 2.30708 10.3689 2.25 11.9702 2.25C13.5716 2.25 14.9023 2.30708 15.9817 2.52799C17.0747 2.75168 17.9755 3.15608 18.6523 3.89749C19.3211 4.63015 19.6932 5.60742 19.9065 6.81915C20.1194 8.02872 20.1862 9.54736 20.1862 11.429C20.1862 12.1552 20.1875 12.837 20.1886 13.4766C20.1941 16.5013 20.1979 18.5807 20.0615 19.9369C19.9801 20.7461 19.8398 21.4329 19.5313 21.9262C19.3654 22.1915 19.145 22.4113 18.8589 22.5577C18.5779 22.7015 18.2812 22.75 17.9972 22.75C17.3485 22.75 16.7194 22.3931 16.2116 22.0403C15.7159 21.6959 15.1941 21.2499 14.7006 20.8282C14.6615 20.7948 14.6226 20.7615 14.5838 20.7284C14.0389 20.2633 13.5271 19.8339 13.0468 19.5186C12.5486 19.1915 12.1984 19.066 11.9702 19.066C11.7421 19.066 11.3919 19.1915 10.8937 19.5186C10.4134 19.8339 9.90158 20.2633 9.35667 20.7284C9.31793 20.7615 9.27899 20.7948 9.23987 20.8282C8.74641 21.2499 8.2246 21.6959 7.72889 22.0403C7.22111 22.3931 6.59202 22.75 5.94325 22.75C5.65927 22.75 5.36259 22.7015 5.0816 22.5577C4.79548 22.4113 4.57513 22.1915 4.40921 21.9262C4.10069 21.4329 3.96038 20.7461 3.87901 19.9369C3.74264 18.5807 3.74639 16.5013 3.75186 13.4766C3.75302 12.837 3.75425 12.1552 3.75425 11.429C3.75425 9.54736 3.82109 8.02872 4.03399 6.81915C4.24729 5.60742 4.6194 4.63015 5.2882 3.89749C5.96498 3.15608 6.86579 2.75168 7.9588 2.52799ZM5.51128 7.07919C5.32229 8.15291 5.25425 9.56214 5.25425 11.429C5.25425 12.1729 5.25307 12.8658 5.25198 13.511C5.24685 16.5367 5.24349 18.514 5.37149 19.7868C5.45037 20.5713 5.57005 20.9535 5.68097 21.1309C5.72477 21.2009 5.754 21.2168 5.76478 21.2223C5.78068 21.2305 5.82823 21.25 5.94325 21.25C6.09197 21.25 6.38664 21.1464 6.87298 20.8085C7.30412 20.5089 7.77052 20.1105 8.28259 19.6732C8.31581 19.6448 8.34922 19.6162 8.38283 19.5876C8.91692 19.1317 9.49861 18.6401 10.0704 18.2647C10.6244 17.901 11.2849 17.566 11.9702 17.566C12.6556 17.566 13.3161 17.901 13.8701 18.2647C14.4419 18.6401 15.0236 19.1317 15.5577 19.5876C15.5913 19.6162 15.6247 19.6448 15.6579 19.6731C16.17 20.1105 16.6364 20.5089 17.0675 20.8085C17.5539 21.1464 17.8485 21.25 17.9972 21.25C18.1123 21.25 18.1598 21.2305 18.1757 21.2223C18.1865 21.2168 18.2157 21.2009 18.2595 21.1309C18.3704 20.9535 18.4901 20.5713 18.569 19.7868C18.697 18.514 18.6937 16.5367 18.6885 13.5109C18.6874 12.8657 18.6862 12.1729 18.6862 11.429C18.6862 9.56214 18.6182 8.15291 18.4292 7.07919C18.2406 6.00764 17.9438 5.34622 17.5445 4.90876C17.1531 4.48004 16.5866 4.18288 15.681 3.99754C14.7617 3.80942 13.5624 3.75 11.9702 3.75C10.3781 3.75 9.17876 3.80942 8.25954 3.99754C7.35389 4.18288 6.7874 4.48004 6.39605 4.90876C5.99672 5.34622 5.6999 6.00764 5.51128 7.07919Z" fill="#212121"/>
</svg>
