<svg width="24" height="25" viewBox="0 0 24 25" fill="none" xmlns="http://www.w3.org/2000/svg">
<path d="M12.0005 13.645C11.5865 13.645 11.2505 13.309 11.2505 12.895V9C11.2505 8.586 11.5865 8.25 12.0005 8.25C12.4145 8.25 12.7505 8.586 12.7505 9V12.895C12.7505 13.309 12.4145 13.645 12.0005 13.645Z" fill="#F75555"/>
<path d="M11.2495 16.395C11.2495 16.809 11.5905 17.145 12.0045 17.145C12.4185 17.145 12.7545 16.809 12.7545 16.395C12.7545 15.981 12.4185 15.645 12.0045 15.645H11.9955C11.5815 15.645 11.2495 15.981 11.2495 16.395Z" fill="#F75555"/>
<path fill-rule="evenodd" clip-rule="evenodd" d="M12.0006 22.25C6.20657 22.25 2.36657 22.012 1.80557 18.834C1.42657 16.695 3.06857 13.436 4.72657 10.529L4.93557 10.161C7.97357 4.759 9.88857 2.75 12.0006 2.75C14.1136 2.75 16.0276 4.759 19.0646 10.161L19.2736 10.529C20.9316 13.436 22.5736 16.695 22.1946 18.834C21.6346 22.012 17.7946 22.25 12.0006 22.25ZM12.0006 4.25C10.5846 4.25 8.86157 6.238 6.24157 10.896L6.02857 11.272L6.02556 11.2773C5.18124 12.7594 2.94697 16.6813 3.28157 18.573C3.58057 20.262 5.53657 20.75 12.0006 20.75C18.4646 20.75 20.4206 20.262 20.7186 18.573C21.0532 16.6813 18.8189 12.7594 17.9746 11.2773L17.9716 11.272L17.7586 10.896C15.1396 6.238 13.4176 4.25 12.0006 4.25Z" fill="#F75555"/>
</svg>
