<svg width="28" height="28" viewBox="0 0 28 28" fill="none" xmlns="http://www.w3.org/2000/svg">
<mask id="mask0_3651_11424" style="mask-type:luminance" maskUnits="userSpaceOnUse" x="2" y="2" width="24" height="24">
<path fill-rule="evenodd" clip-rule="evenodd" d="M2.3338 2.3335H25.6123V25.613H2.3338V2.3335Z" fill="white"/>
</mask>
<g mask="url(#mask0_3651_11424)">
<path fill-rule="evenodd" clip-rule="evenodd" d="M8.92663 4.0835C5.98547 4.0835 4.0838 6.10066 4.0838 9.2215V18.7252C4.0838 21.8472 5.98547 23.8632 8.92663 23.8632H19.0136C21.9595 23.8632 23.8623 21.8472 23.8623 18.7252V9.2215C23.8646 7.63133 23.3793 6.30366 22.46 5.38316C21.6106 4.53266 20.4218 4.0835 19.0195 4.0835H8.92663ZM19.0136 25.6132H8.92664C4.9833 25.6132 2.3338 22.8447 2.3338 18.7252V9.2215C2.3338 5.102 4.9833 2.3335 8.92664 2.3335H19.0195C20.8955 2.3335 22.5136 2.96 23.6978 4.1465C24.9356 5.3855 25.6146 7.188 25.6123 9.22266V18.7252C25.6123 22.8447 22.9605 25.6132 19.0136 25.6132Z" fill="#212121"/>
</g>
<path fill-rule="evenodd" clip-rule="evenodd" d="M10.3325 8.97119C9.62783 8.97119 9.05499 9.54402 9.05499 10.2499C9.05499 10.9545 9.62783 11.5274 10.3337 11.5274C11.0383 11.5274 11.6123 10.9545 11.6123 10.251C11.6112 9.54519 11.0372 8.97236 10.3325 8.97119ZM10.3337 13.2774C8.66299 13.2774 7.30499 11.9194 7.30499 10.2499C7.30499 8.57919 8.66299 7.22119 10.3337 7.22119C12.0032 7.22236 13.3612 8.58036 13.3623 10.2487V10.2499C13.3623 11.9194 12.0043 13.2774 10.3337 13.2774Z" fill="#212121"/>
<path fill-rule="evenodd" clip-rule="evenodd" d="M4.37382 23.4634C4.22915 23.4634 4.08215 23.4272 3.94682 23.3514C3.52448 23.1145 3.37632 22.5814 3.61198 22.1602C3.68198 22.0342 5.35615 19.0744 7.19832 17.5577C8.65898 16.356 10.2317 17.0164 11.4987 17.5495C12.2442 17.8634 12.9488 18.1597 13.6255 18.1597C14.2462 18.1597 15.0243 17.063 15.7127 16.0959C16.6682 14.7472 17.7532 13.2212 19.3422 13.2212C21.8738 13.2212 24.059 15.4799 25.2338 16.6932L25.3692 16.8332C25.7052 17.1797 25.697 17.7339 25.3505 18.071C25.0063 18.4082 24.4522 18.4 24.1138 18.0524L23.9762 17.91C22.9821 16.8822 21.1318 14.9712 19.3422 14.9712C18.6562 14.9712 17.8511 16.1064 17.1383 17.1085C16.1607 18.4852 15.1492 19.9097 13.6255 19.9097C12.5953 19.9097 11.6515 19.513 10.8197 19.1619C9.49665 18.6042 8.89698 18.4257 8.31015 18.9087C6.71882 20.22 5.15315 22.9897 5.13798 23.0165C4.97815 23.3024 4.68065 23.4634 4.37382 23.4634Z" fill="#212121"/>
</svg>
