<svg width="28" height="28" viewBox="0 0 28 28" fill="none" xmlns="http://www.w3.org/2000/svg">
<path fill-rule="evenodd" clip-rule="evenodd" d="M13.7398 15.7087C12.9593 15.7087 12.1811 15.4509 11.5301 14.9352L6.2976 10.7166C5.92077 10.4132 5.86243 9.86141 6.1646 9.48575C6.4691 9.11125 7.01977 9.05175 7.39543 9.35391L12.6233 13.5679C13.2801 14.0882 14.2053 14.0882 14.8668 13.5632L20.0421 9.35625C20.4178 9.04941 20.9684 9.10775 21.2741 9.48341C21.5786 9.85791 21.5214 10.4086 21.1469 10.7142L15.9623 14.9282C15.3066 15.4486 14.5226 15.7087 13.7398 15.7087Z" fill="#212121"/>
<mask id="mask0_3568_6014" style="mask-type:luminance" maskUnits="userSpaceOnUse" x="1" y="2" width="26" height="24">
<path fill-rule="evenodd" clip-rule="evenodd" d="M1.16675 2.33325H26.25V25.0833H1.16675V2.33325Z" fill="white"/>
</mask>
<g mask="url(#mask0_3568_6014)">
<path fill-rule="evenodd" clip-rule="evenodd" d="M7.97892 23.3333H19.4356C19.4379 23.3309 19.4472 23.3333 19.4542 23.3333C20.7854 23.3333 21.9661 22.8573 22.8714 21.9531C23.9226 20.9066 24.5001 19.4028 24.5001 17.7193V9.70659C24.5001 6.44809 22.3697 4.08325 19.4356 4.08325H7.98125C5.04708 4.08325 2.91675 6.44809 2.91675 9.70659V17.7193C2.91675 19.4028 3.49541 20.9066 4.54541 21.9531C5.45075 22.8573 6.63258 23.3333 7.96258 23.3333H7.97892ZM7.95908 25.0833C6.15892 25.0833 4.55125 24.4299 3.30991 23.1933C1.92741 21.8143 1.16675 19.8706 1.16675 17.7193V9.70659C1.16675 5.50309 4.09625 2.33325 7.98125 2.33325H19.4356C23.3206 2.33325 26.2501 5.50309 26.2501 9.70659V17.7193C26.2501 19.8706 25.4894 21.8143 24.1069 23.1933C22.8667 24.4288 21.2579 25.0833 19.4543 25.0833H19.4356H7.98125H7.95908Z" fill="#212121"/>
</g>
</svg>
