<svg width="25" height="24" viewBox="0 0 25 24" fill="none" xmlns="http://www.w3.org/2000/svg">
<g clip-path="url(#clip0_3556_2133)">
<path d="M17.023 0.0120105C16.972 -0.0449895 15.1345 0.0345106 13.5355 1.77001C11.9365 3.50401 12.1825 5.49301 12.2185 5.54401C12.2545 5.59501 14.4985 5.67451 15.931 3.65701C17.3635 1.63951 17.074 0.0705105 17.023 0.0120105ZM21.994 17.6115C21.922 17.4675 18.5065 15.7605 18.8245 12.4785C19.1425 9.19501 21.337 8.29501 21.3715 8.19751C21.406 8.10001 20.476 7.01251 19.4905 6.46201C18.7669 6.07389 17.9661 5.85152 17.146 5.81101C16.984 5.80651 16.4215 5.66851 15.265 5.98501C14.503 6.19351 12.7855 6.86851 12.313 6.89551C11.839 6.92251 10.429 6.11251 8.91251 5.89801C7.94201 5.71051 6.91301 6.09451 6.17651 6.39001C5.44151 6.68401 4.04351 7.52101 3.06551 9.74551C2.08751 11.9685 2.59901 15.4905 2.96501 16.5855C3.33101 17.679 3.90251 19.4715 4.87451 20.7795C5.73851 22.2555 6.88451 23.28 7.36301 23.628C7.84151 23.976 9.19151 24.207 10.1275 23.7285C10.8805 23.2665 12.2395 23.001 12.7765 23.0205C13.312 23.04 14.368 23.2515 15.4495 23.829C16.306 24.1245 17.116 24.0015 17.9275 23.6715C18.739 23.34 19.9135 22.083 21.2845 19.5345C21.805 18.3495 22.042 17.709 21.994 17.6115Z" fill="black"/>
<path d="M17.023 0.0120105C16.972 -0.0449895 15.1345 0.0345106 13.5355 1.77001C11.9365 3.50401 12.1825 5.49301 12.2185 5.54401C12.2545 5.59501 14.4985 5.67451 15.931 3.65701C17.3635 1.63951 17.074 0.0705105 17.023 0.0120105ZM21.994 17.6115C21.922 17.4675 18.5065 15.7605 18.8245 12.4785C19.1425 9.19501 21.337 8.29501 21.3715 8.19751C21.406 8.10001 20.476 7.01251 19.4905 6.46201C18.7669 6.07389 17.9661 5.85152 17.146 5.81101C16.984 5.80651 16.4215 5.66851 15.265 5.98501C14.503 6.19351 12.7855 6.86851 12.313 6.89551C11.839 6.92251 10.429 6.11251 8.91251 5.89801C7.94201 5.71051 6.91301 6.09451 6.17651 6.39001C5.44151 6.68401 4.04351 7.52101 3.06551 9.74551C2.08751 11.9685 2.59901 15.4905 2.96501 16.5855C3.33101 17.679 3.90251 19.4715 4.87451 20.7795C5.73851 22.2555 6.88451 23.28 7.36301 23.628C7.84151 23.976 9.19151 24.207 10.1275 23.7285C10.8805 23.2665 12.2395 23.001 12.7765 23.0205C13.312 23.04 14.368 23.2515 15.4495 23.829C16.306 24.1245 17.116 24.0015 17.9275 23.6715C18.739 23.34 19.9135 22.083 21.2845 19.5345C21.805 18.3495 22.042 17.709 21.994 17.6115Z" fill="black"/>
</g>
<defs>
<clipPath id="clip0_3556_2133">
<rect width="24" height="24" fill="white" transform="translate(0.25)"/>
</clipPath>
</defs>
</svg>
