<svg width="25" height="25" viewBox="0 0 25 25" fill="none" xmlns="http://www.w3.org/2000/svg">
<path fill-rule="evenodd" clip-rule="evenodd" d="M1.83676 2.76917L1.9214 2.68072C4.17005 0.431857 5.63441 -0.164226 7.19683 0.734236C7.64627 0.992684 8.06761 1.35445 8.64055 1.93636L10.398 3.75872C11.3687 4.81793 11.5893 5.83392 11.2733 7.02377L11.2297 7.18129L11.1814 7.33791L10.9465 8.02721C10.4436 9.57302 10.6535 10.4452 12.4426 12.2338C14.3031 14.0938 15.1716 14.246 16.8366 13.6641L17.1334 13.561L17.4922 13.4444L17.6493 13.4009C18.914 13.0634 19.9823 13.3327 21.1153 14.465L22.5313 15.8327L22.9482 16.2427C23.4103 16.714 23.7157 17.0874 23.9413 17.482C24.8342 19.044 24.2375 20.5075 21.924 22.8124L21.7039 23.0354C21.3584 23.3683 21.0357 23.6068 20.5616 23.8319C19.7658 24.2097 18.8256 24.3522 17.7331 24.2002C15.0411 23.8259 11.6268 21.7018 7.30044 17.3765C6.94827 17.0245 6.61097 16.6792 6.28821 16.3406L5.66197 15.6722C-0.206187 9.29666 -0.723878 5.3802 1.68096 2.92393L1.83676 2.76917ZM7.22407 2.99442C6.84397 2.6197 6.56787 2.39127 6.32445 2.25129C5.78601 1.94166 5.20466 2.07255 4.12876 2.99856L3.7907 3.30058C3.73173 3.35501 3.67142 3.41151 3.6097 3.47014L3.22205 3.84771L3.18712 3.89135L2.92431 4.15538C2.28924 4.80406 1.98841 5.59575 2.24764 6.95729C2.67302 9.19148 4.62007 12.2223 8.53772 16.1389C12.6197 20.2199 15.7299 22.1548 17.9742 22.4669C19.2825 22.6489 19.9498 22.332 20.6304 21.6348L21.1494 21.1111C21.3928 20.8564 21.6007 20.6256 21.7763 20.4147L22.0158 20.1129C22.6279 19.2976 22.6838 18.8085 22.422 18.3505C22.3224 18.1763 22.1775 17.9852 21.9666 17.7517L21.6805 17.4495L21.5112 17.2801L19.7247 15.5551C19.1278 15.0046 18.7198 14.9264 18.1004 15.0917L17.9216 15.1431L17.1816 15.3943C15.0348 16.0877 13.486 15.7515 11.2053 13.4714C8.84326 11.1099 8.56624 9.53294 9.35768 7.26238L9.40845 7.11647L9.54885 6.69347L9.61786 6.42385C9.74024 5.83705 9.60052 5.42791 8.96973 4.79702C8.94375 4.77105 8.91472 4.74178 8.88314 4.70975L7.22407 2.99442Z" fill="#212121"/>
</svg>
