<svg width="44" height="44" viewBox="0 0 44 44" fill="none" xmlns="http://www.w3.org/2000/svg">
<path d="M34.8334 20.1667H23.8334V9.16671C23.8334 8.68048 23.6402 8.21416 23.2964 7.87035C22.9526 7.52653 22.4863 7.33337 22 7.33337C21.5138 7.33337 21.0475 7.52653 20.7037 7.87035C20.3599 8.21416 20.1667 8.68048 20.1667 9.16671V20.1667H9.16671C8.68048 20.1667 8.21416 20.3599 7.87035 20.7037C7.52653 21.0475 7.33337 21.5138 7.33337 22C7.33337 22.4863 7.52653 22.9526 7.87035 23.2964C8.21416 23.6402 8.68048 23.8334 9.16671 23.8334H20.1667V34.8334C20.1667 35.3196 20.3599 35.7859 20.7037 36.1297C21.0475 36.4736 21.5138 36.6667 22 36.6667C22.4863 36.6667 22.9526 36.4736 23.2964 36.1297C23.6402 35.7859 23.8334 35.3196 23.8334 34.8334V23.8334H34.8334C35.3196 23.8334 35.7859 23.6402 36.1297 23.2964C36.4736 22.9526 36.6667 22.4863 36.6667 22C36.6667 21.5138 36.4736 21.0475 36.1297 20.7037C35.7859 20.3599 35.3196 20.1667 34.8334 20.1667Z" fill="#6949FF"/>
</svg>
