<svg width="24" height="24" viewBox="0 0 24 24" fill="none" xmlns="http://www.w3.org/2000/svg">
<rect width="24" height="24" rx="12" fill="#F75555"/>
<path d="M12.94 11.9998L15.8067 9.1398C15.9322 9.01426 16.0027 8.844 16.0027 8.66646C16.0027 8.48893 15.9322 8.31867 15.8067 8.19313C15.6811 8.0676 15.5109 7.99707 15.3333 7.99707C15.1558 7.99707 14.9855 8.0676 14.86 8.19313L12 11.0598L9.14 8.19313C9.01447 8.0676 8.84421 7.99707 8.66667 7.99707C8.48914 7.99707 8.31887 8.0676 8.19334 8.19313C8.0678 8.31867 7.99728 8.48893 7.99728 8.66646C7.99728 8.844 8.0678 9.01426 8.19334 9.1398L11.06 11.9998L8.19334 14.8598C8.13085 14.9218 8.08126 14.9955 8.04741 15.0767C8.01357 15.158 7.99614 15.2451 7.99614 15.3331C7.99614 15.4211 8.01357 15.5083 8.04741 15.5895C8.08126 15.6708 8.13085 15.7445 8.19334 15.8065C8.25531 15.8689 8.32905 15.9185 8.41029 15.9524C8.49153 15.9862 8.57866 16.0037 8.66667 16.0037C8.75468 16.0037 8.84182 15.9862 8.92306 15.9524C9.0043 15.9185 9.07803 15.8689 9.14 15.8065L12 12.9398L14.86 15.8065C14.922 15.8689 14.9957 15.9185 15.077 15.9524C15.1582 15.9862 15.2453 16.0037 15.3333 16.0037C15.4213 16.0037 15.5085 15.9862 15.5897 15.9524C15.671 15.9185 15.7447 15.8689 15.8067 15.8065C15.8692 15.7445 15.9188 15.6708 15.9526 15.5895C15.9864 15.5083 16.0039 15.4211 16.0039 15.3331C16.0039 15.2451 15.9864 15.158 15.9526 15.0767C15.9188 14.9955 15.8692 14.9218 15.8067 14.8598L12.94 11.9998Z" fill="white"/>
</svg>
