<svg width="21" height="20" viewBox="0 0 21 20" fill="none" xmlns="http://www.w3.org/2000/svg">
<path d="M7.16644 15.8333C6.93032 15.8333 6.73227 15.7533 6.57227 15.5933C6.41227 15.4333 6.33255 15.2356 6.3331 15C6.3331 14.7639 6.4131 14.5658 6.5731 14.4058C6.7331 14.2458 6.93088 14.1661 7.16644 14.1667H12.2498C13.1248 14.1667 13.8853 13.8889 14.5314 13.3333C15.1775 12.7778 15.5003 12.0833 15.4998 11.25C15.4998 10.4167 15.1767 9.72222 14.5306 9.16667C13.8845 8.61111 13.1242 8.33333 12.2498 8.33333H6.99977L8.5831 9.91667C8.73588 10.0694 8.81227 10.2639 8.81227 10.5C8.81227 10.7361 8.73588 10.9306 8.5831 11.0833C8.43032 11.2361 8.23588 11.3125 7.99977 11.3125C7.76366 11.3125 7.56921 11.2361 7.41644 11.0833L4.41644 8.08333C4.3331 8 4.27394 7.90972 4.23894 7.8125C4.20394 7.71528 4.18671 7.61111 4.18727 7.5C4.18727 7.38889 4.20477 7.28472 4.23977 7.1875C4.27477 7.09028 4.33366 7 4.41644 6.91667L7.41644 3.91667C7.56921 3.76389 7.76366 3.6875 7.99977 3.6875C8.23588 3.6875 8.43032 3.76389 8.5831 3.91667C8.73588 4.06944 8.81227 4.26389 8.81227 4.5C8.81227 4.73611 8.73588 4.93056 8.5831 5.08333L6.99977 6.66667H12.2498C13.597 6.66667 14.7534 7.10417 15.7189 7.97917C16.6845 8.85417 17.167 9.94444 17.1664 11.25C17.1664 12.5556 16.6837 13.6458 15.7181 14.5208C14.7525 15.3958 13.5964 15.8333 12.2498 15.8333H7.16644Z" fill="#6949FF"/>
</svg>
