<svg width="29" height="28" viewBox="0 0 29 28" fill="none" xmlns="http://www.w3.org/2000/svg">
<path fill-rule="evenodd" clip-rule="evenodd" d="M18.3741 3.27601L24.974 9.87468C25.1908 10.0914 25.3627 10.3486 25.48 10.6318C25.5974 10.9149 25.6577 11.2184 25.6577 11.5249C25.6577 11.8314 25.5974 12.1349 25.48 12.4181C25.3627 12.7012 25.1908 12.9585 24.974 13.1752L20.865 17.2853L20.8498 17.2993L20.8346 17.3145L15.9825 22.1667H23.5833C23.8927 22.1667 24.1895 22.2896 24.4083 22.5084C24.6271 22.7272 24.75 23.0239 24.75 23.3333C24.75 23.6428 24.6271 23.9395 24.4083 24.1583C24.1895 24.3771 23.8927 24.5 23.5833 24.5H10.6251C10.1612 24.4996 9.71636 24.315 9.38848 23.9867L3.52482 18.1253C3.30805 17.9087 3.13609 17.6514 3.01877 17.3682C2.90145 17.0851 2.84106 16.7816 2.84106 16.4751C2.84106 16.1686 2.90145 15.8651 3.01877 15.5819C3.13609 15.2988 3.30805 15.0415 3.52482 14.8248L15.0748 3.27484C15.5124 2.83741 16.1058 2.59167 16.7245 2.59167C17.3432 2.59167 17.9366 2.83741 18.3741 3.27484V3.27601ZM18.3741 16.4745L12.6831 22.1667H10.8666L5.17565 16.4745L11.7755 9.87468L18.3741 16.4745ZM20.025 14.8248L13.4251 8.22501L16.7245 4.92568L23.3243 11.5255L20.025 14.8248Z" fill="#6949FF"/>
</svg>
