<svg width="20" height="20" viewBox="0 0 20 20" fill="none" xmlns="http://www.w3.org/2000/svg">
<path d="M2.49984 14.1666C2.26373 14.1666 2.06567 14.0866 1.90567 13.9266C1.74567 13.7666 1.66595 13.5689 1.66651 13.3333V6.66663C1.66651 6.43052 1.74651 6.23246 1.90651 6.07246C2.06651 5.91246 2.26428 5.83274 2.49984 5.8333H4.16651C4.40262 5.8333 4.60067 5.9133 4.76067 6.0733C4.92067 6.2333 5.0004 6.43107 4.99984 6.66663V13.3333C4.99984 13.5694 4.91984 13.7675 4.75984 13.9275C4.59984 14.0875 4.40206 14.1672 4.16651 14.1666H2.49984ZM6.66651 15.8333C6.4304 15.8333 6.23234 15.7533 6.07234 15.5933C5.91234 15.4333 5.83262 15.2355 5.83317 15V4.99996C5.83317 4.76385 5.91317 4.5658 6.07317 4.4058C6.23317 4.2458 6.43095 4.16607 6.66651 4.16663H13.3332C13.5693 4.16663 13.7673 4.24663 13.9273 4.40663C14.0873 4.56663 14.1671 4.76441 14.1665 4.99996V15C14.1665 15.2361 14.0865 15.4341 13.9265 15.5941C13.7665 15.7541 13.5687 15.8339 13.3332 15.8333H6.66651ZM15.8332 14.1666C15.5971 14.1666 15.399 14.0866 15.239 13.9266C15.079 13.7666 14.9993 13.5689 14.9998 13.3333V6.66663C14.9998 6.43052 15.0798 6.23246 15.2398 6.07246C15.3998 5.91246 15.5976 5.83274 15.8332 5.8333H17.4998C17.736 5.8333 17.934 5.9133 18.094 6.0733C18.254 6.2333 18.3337 6.43107 18.3332 6.66663V13.3333C18.3332 13.5694 18.2532 13.7675 18.0932 13.9275C17.9332 14.0875 17.7354 14.1672 17.4998 14.1666H15.8332Z" fill="#6949FF"/>
</svg>
