<svg width="29" height="28" viewBox="0 0 29 28" fill="none" xmlns="http://www.w3.org/2000/svg">
<path d="M24.3213 6.903C24.3213 6.00047 23.9628 5.1349 23.3246 4.49672C22.6864 3.85853 21.8208 3.5 20.9183 3.5H8.87692C7.97438 3.5 7.10882 3.85853 6.47063 4.49672C5.83244 5.1349 5.47391 6.00047 5.47391 6.903V19.7643C5.47391 21.1286 7.11783 21.8186 8.09161 20.8616L12.3113 16.7152C12.3185 16.708 12.3255 16.7007 12.3323 16.6932L14.3479 14.7194L14.4348 14.6451C14.5849 14.5358 14.7688 14.4832 14.954 14.4966C15.1391 14.51 15.3136 14.5886 15.4463 14.7184L17.6242 16.8513L18.7341 15.7414L16.5457 13.597L16.4106 13.4755C15.9625 13.0996 15.3906 12.9038 14.8061 12.9263C14.2217 12.9487 13.6664 13.1878 13.2485 13.597L8.58688 18.1622H8.59735L7.04453 19.6878V6.903C7.04453 5.89153 7.86544 5.07062 8.87692 5.07062H20.9183C21.9308 5.07062 22.7507 5.89153 22.7507 6.903V12.1195C23.2533 11.9206 23.7915 11.8442 24.3213 11.8892V6.903ZM20.6607 9.52279C20.6607 8.89727 20.4122 8.29736 19.9699 7.85505C19.5276 7.41274 18.9277 7.16425 18.3022 7.16425C17.6767 7.16425 17.0768 7.41274 16.6344 7.85505C16.1921 8.29736 15.9436 8.89727 15.9436 9.52279C15.9436 10.1483 16.1921 10.7482 16.6344 11.1905C17.0768 11.6328 17.6767 11.8813 18.3022 11.8813C18.9277 11.8813 19.5276 11.6328 19.9699 11.1905C20.4122 10.7482 20.6607 10.1483 20.6607 9.52279ZM17.5143 9.52279C17.5143 9.31382 17.5973 9.11341 17.745 8.96564C17.8928 8.81788 18.0932 8.73487 18.3022 8.73487C18.5112 8.73487 18.7116 8.81788 18.8593 8.96564C19.0071 9.11341 19.0901 9.31382 19.0901 9.52279C19.0901 9.73176 19.0071 9.93218 18.8593 10.0799C18.7116 10.2277 18.5112 10.3107 18.3022 10.3107C18.0932 10.3107 17.8928 10.2277 17.745 10.0799C17.5973 9.93218 17.5143 9.73176 17.5143 9.52279ZM16.151 19.8051L22.3308 13.6252C22.553 13.403 22.8168 13.2266 23.1072 13.1063C23.3975 12.986 23.7088 12.924 24.023 12.924C24.3373 12.9239 24.6486 12.9858 24.939 13.106C25.2294 13.2263 25.4932 13.4025 25.7155 13.6247C25.9378 13.8469 26.1141 14.1107 26.2344 14.4011C26.3547 14.6914 26.4167 15.0027 26.4167 15.317C26.4168 15.6312 26.3549 15.9425 26.2347 16.2329C26.1145 16.5233 25.9382 16.7871 25.716 17.0094L19.5351 23.1893C19.175 23.5498 18.7237 23.8057 18.2294 23.9295L16.3133 24.4081C16.2617 24.4215 16.2092 24.431 16.1562 24.4363C15.5384 24.6499 13.037 25.0373 12.149 24.3442C11.548 23.8751 11.6674 22.9474 11.9208 22.4406C11.9627 22.3589 11.8998 22.2521 11.8108 22.2668C11.1198 22.3746 10.5093 22.738 9.89782 23.1034C9.07795 23.5934 8.2539 24.0835 7.22882 23.9568C6.20373 23.829 5.69171 23.1966 5.43831 22.6427C5.33465 22.4165 5.62679 22.2228 5.84458 22.3422C6.33566 22.6092 7.00265 22.8615 7.55236 22.7401C7.94502 22.6521 8.49892 22.2605 9.11879 21.8218C10.235 21.0333 11.5658 20.0909 12.5658 20.4941C13.4453 20.8469 14.0945 21.6982 13.6443 22.7066C13.5898 22.8301 13.6443 22.983 13.7772 23.0133C14.2202 23.1149 14.5919 23.0825 14.9636 22.9034L15.4117 21.1108C15.5353 20.6166 15.7908 20.1653 16.151 19.8051Z" fill="#6949FF"/>
</svg>
