<svg width="29" height="28" viewBox="0 0 29 28" fill="none" xmlns="http://www.w3.org/2000/svg">
<path d="M14.2501 23.3333C11.6445 23.3333 9.43758 22.4291 7.62925 20.6208C5.82091 18.8125 4.91675 16.6055 4.91675 14C4.91675 11.3944 5.82091 9.18746 7.62925 7.37913C9.43758 5.5708 11.6445 4.66663 14.2501 4.66663C15.5917 4.66663 16.8751 4.94352 18.1001 5.4973C19.3251 6.05107 20.3751 6.84363 21.2501 7.87496V5.8333C21.2501 5.50274 21.3621 5.22546 21.5861 5.00146C21.8101 4.77746 22.087 4.66585 22.4167 4.66663C22.7473 4.66663 23.0246 4.77863 23.2486 5.00263C23.4726 5.22663 23.5842 5.50352 23.5834 5.8333V11.6666C23.5834 11.9972 23.4714 12.2745 23.2474 12.4985C23.0234 12.7225 22.7465 12.8341 22.4167 12.8333H16.5834C16.2529 12.8333 15.9756 12.7213 15.7516 12.4973C15.5276 12.2733 15.416 11.9964 15.4167 11.6666C15.4167 11.3361 15.5287 11.0588 15.7527 10.8348C15.9767 10.6108 16.2536 10.4992 16.5834 10.5H20.3167C19.6945 9.41107 18.8436 8.55552 17.7641 7.9333C16.6845 7.31107 15.5132 6.99996 14.2501 6.99996C12.3056 6.99996 10.6529 7.68052 9.29175 9.04163C7.93064 10.4027 7.25008 12.0555 7.25008 14C7.25008 15.9444 7.93064 17.5972 9.29175 18.9583C10.6529 20.3194 12.3056 21 14.2501 21C15.5723 21 16.7829 20.6644 17.8819 19.9931C18.9809 19.3219 19.8314 18.4228 20.4334 17.2958C20.589 17.0236 20.8079 16.8342 21.0903 16.7276C21.3726 16.6211 21.6592 16.616 21.9501 16.7125C22.2612 16.8097 22.4848 17.0139 22.6209 17.325C22.757 17.6361 22.7473 17.9277 22.5917 18.2C21.7945 19.7555 20.657 21 19.1792 21.9333C17.7015 22.8666 16.0584 23.3333 14.2501 23.3333Z" fill="#6949FF"/>
</svg>
