<svg width="21" height="20" viewBox="0 0 21 20" fill="none" xmlns="http://www.w3.org/2000/svg">
<path d="M8.75016 15.8333C7.40294 15.8333 6.24655 15.3958 5.281 14.5208C4.31544 13.6458 3.83294 12.5556 3.8335 11.25C3.8335 9.94444 4.31627 8.85417 5.28183 7.97917C6.24739 7.10417 7.4035 6.66667 8.75016 6.66667H14.0002L12.4168 5.08333C12.2641 4.93056 12.1877 4.73611 12.1877 4.5C12.1877 4.26389 12.2641 4.06944 12.4168 3.91667C12.5696 3.76389 12.7641 3.6875 13.0002 3.6875C13.2363 3.6875 13.4307 3.76389 13.5835 3.91667L16.5835 6.91667C16.6668 7 16.726 7.09028 16.761 7.1875C16.796 7.28472 16.8132 7.38889 16.8127 7.5C16.8127 7.61111 16.7952 7.71528 16.7602 7.8125C16.7252 7.90972 16.6663 8 16.5835 8.08333L13.5835 11.0833C13.4307 11.2361 13.2363 11.3125 13.0002 11.3125C12.7641 11.3125 12.5696 11.2361 12.4168 11.0833C12.2641 10.9306 12.1877 10.7361 12.1877 10.5C12.1877 10.2639 12.2641 10.0694 12.4168 9.91667L14.0002 8.33333H8.75016C7.87516 8.33333 7.11461 8.61111 6.4685 9.16667C5.82239 9.72222 5.49961 10.4167 5.50016 11.25C5.50016 12.0833 5.82322 12.7778 6.46933 13.3333C7.11544 13.8889 7.87572 14.1667 8.75016 14.1667H13.8335C14.0696 14.1667 14.2677 14.2467 14.4277 14.4067C14.5877 14.5667 14.6674 14.7644 14.6668 15C14.6668 15.2361 14.5868 15.4342 14.4268 15.5942C14.2668 15.7542 14.0691 15.8339 13.8335 15.8333H8.75016Z" fill="#6949FF"/>
</svg>
