<svg width="20" height="20" viewBox="0 0 20 20" fill="none" xmlns="http://www.w3.org/2000/svg">
<path fill-rule="evenodd" clip-rule="evenodd" d="M3.78317 1.66663H6.59984C7.77484 1.66663 8.7165 2.62496 8.7165 3.80079V6.64163C8.7165 7.82496 7.77484 8.77496 6.59984 8.77496H3.78317C2.6165 8.77496 1.6665 7.82496 1.6665 6.64163V3.80079C1.6665 2.62496 2.6165 1.66663 3.78317 1.66663ZM3.78317 11.2247H6.59984C7.77484 11.2247 8.7165 12.1755 8.7165 13.3589V16.1997C8.7165 17.3747 7.77484 18.333 6.59984 18.333H3.78317C2.6165 18.333 1.6665 17.3747 1.6665 16.1997V13.3589C1.6665 12.1755 2.6165 11.2247 3.78317 11.2247ZM16.2166 1.66663H13.3999C12.2249 1.66663 11.2833 2.62496 11.2833 3.80079V6.64163C11.2833 7.82496 12.2249 8.77496 13.3999 8.77496H16.2166C17.3833 8.77496 18.3333 7.82496 18.3333 6.64163V3.80079C18.3333 2.62496 17.3833 1.66663 16.2166 1.66663ZM13.3999 11.2247H16.2166C17.3833 11.2247 18.3333 12.1755 18.3333 13.3589V16.1997C18.3333 17.3747 17.3833 18.333 16.2166 18.333H13.3999C12.2249 18.333 11.2833 17.3747 11.2833 16.1997V13.3589C11.2833 12.1755 12.2249 11.2247 13.3999 11.2247Z" fill="#6949FF"/>
</svg>
