<svg width="32" height="32" viewBox="0 0 32 32" fill="none" xmlns="http://www.w3.org/2000/svg">
<rect width="32" height="32" rx="16" fill="#6949FF"/>
<path d="M16.2744 8C16.6541 8 16.9679 8.28215 17.0176 8.64823L17.0244 8.75V23.75C17.0244 24.1642 16.6886 24.5 16.2744 24.5C15.8947 24.5 15.5809 24.2178 15.5313 23.8518L15.5244 23.75V8.75C15.5244 8.33579 15.8602 8 16.2744 8Z" fill="white"/>
<path d="M21.7673 17.171C22.0595 16.8775 22.5344 16.8765 22.8279 17.1687C23.0948 17.4344 23.1199 17.851 22.9027 18.1451L22.8302 18.2294L16.8062 24.2794C16.5397 24.547 16.1216 24.5714 15.8276 24.3524L15.7433 24.2794L9.71833 18.2294C9.42604 17.9359 9.42703 17.4611 9.72052 17.1688C9.98734 16.9031 10.4041 16.8797 10.6972 17.0982L10.7812 17.171L16.2751 22.687L21.7673 17.171Z" fill="white"/>
</svg>
