<svg width="29" height="28" viewBox="0 0 29 28" fill="none" xmlns="http://www.w3.org/2000/svg">
<path fill-rule="evenodd" clip-rule="evenodd" d="M24.9594 25.5964H16.4976C16.0146 25.5964 15.6226 25.2044 15.6226 24.7214C15.6226 24.2384 16.0146 23.8464 16.4976 23.8464H24.9594C25.4424 23.8464 25.8344 24.2384 25.8344 24.7214C25.8344 25.2044 25.4424 25.5964 24.9594 25.5964Z" fill="#6949FF"/>
<mask id="mask0_3600_3903" style="mask-type:luminance" maskUnits="userSpaceOnUse" x="3" y="3" width="21" height="23">
<path fill-rule="evenodd" clip-rule="evenodd" d="M3.08374 3.50024H23.1278V25.5964H3.08374V3.50024Z" fill="white"/>
</mask>
<g mask="url(#mask0_3600_3903)">
<path fill-rule="evenodd" clip-rule="evenodd" d="M16.0457 5.85299L5.06156 19.5905C4.86206 19.8402 4.78856 20.1622 4.86206 20.4713L5.65656 23.8372L9.20206 23.7928C9.53923 23.7893 9.85073 23.6388 10.0572 23.3822C13.8104 18.6863 20.9656 9.73333 21.1686 9.47083C21.3599 9.16049 21.4346 8.72183 21.3342 8.29949C21.2316 7.86666 20.9621 7.49916 20.5736 7.26466C20.4907 7.20749 18.5249 5.68149 18.4642 5.63366C17.7246 5.04099 16.6454 5.14366 16.0457 5.85299ZM4.96589 25.5965C4.56106 25.5965 4.20873 25.3188 4.11423 24.9233L3.15873 20.8738C2.96156 20.035 3.15756 19.1693 3.69539 18.4973L14.6854 4.75166C14.6901 4.74699 14.6936 4.74116 14.6982 4.73649C15.9034 3.29566 18.0827 3.08333 19.5527 4.26283C19.6111 4.30833 21.5629 5.82499 21.5629 5.82499C22.2722 6.24733 22.8264 7.00216 23.0364 7.89583C23.2452 8.78016 23.0936 9.69249 22.6071 10.4637C22.5709 10.5208 22.5394 10.5698 11.4234 24.4765C10.8879 25.1438 10.0852 25.5323 9.22306 25.5428L4.97756 25.5965H4.96589Z" fill="#6949FF"/>
</g>
<path fill-rule="evenodd" clip-rule="evenodd" d="M19.6772 13.6324C19.4906 13.6324 19.3039 13.5729 19.1441 13.4516L12.7834 8.56555C12.4007 8.27155 12.3284 7.72322 12.6224 7.33822C12.9176 6.95555 13.4659 6.88439 13.8497 7.17839L20.2116 12.0632C20.5942 12.3572 20.6666 12.9067 20.3714 13.2906C20.1999 13.5146 19.9397 13.6324 19.6772 13.6324Z" fill="#6949FF"/>
</svg>
