<svg width="32" height="32" viewBox="0 0 32 32" fill="none" xmlns="http://www.w3.org/2000/svg">
<path d="M12.8933 18.6674C13.6304 18.6674 14.2279 18.0698 14.2279 17.3327C14.2279 16.5956 13.6304 15.998 12.8933 15.998C12.1561 15.998 11.5586 16.5956 11.5586 17.3327C11.5586 18.0698 12.1561 18.6674 12.8933 18.6674Z" fill="white"/>
<path d="M18.7867 20.5207C17.9773 21.1007 16.9943 21.3872 16 21.3327C15.0064 21.3773 14.0274 21.0809 13.2254 20.4927C13.1561 20.4375 13.0689 20.4097 12.9805 20.4147C12.892 20.4197 12.8085 20.4572 12.746 20.5199C12.6834 20.5827 12.6462 20.6662 12.6414 20.7547C12.6366 20.8432 12.6646 20.9303 12.72 20.9994C13.6667 21.7127 14.8294 22.0781 16.0147 22.0261C17.1982 22.078 18.3626 21.7149 19.3067 20.9994V21.0527C19.3765 20.9831 19.4164 20.889 19.4179 20.7904C19.4194 20.6918 19.3824 20.5965 19.3147 20.5247C19.2803 20.4898 19.2394 20.462 19.1942 20.4429C19.149 20.4238 19.1006 20.4137 19.0515 20.4134C19.0025 20.413 18.9539 20.4223 18.9084 20.4407C18.863 20.4591 18.8216 20.4863 18.7867 20.5207ZM19.0654 16.0527C18.7118 16.0527 18.3726 16.1932 18.1226 16.4433C17.8725 16.6933 17.732 17.0324 17.732 17.3861C17.732 17.7397 17.8725 18.0788 18.1226 18.3289C18.3726 18.5789 18.7118 18.7194 19.0654 18.7194L19.0547 18.7714C19.076 18.7741 19.0987 18.7714 19.1227 18.7714C19.4755 18.7568 19.8081 18.603 20.0475 18.3435C20.287 18.084 20.4138 17.7402 20.4 17.3874C20.4002 17.2121 20.3658 17.0384 20.2988 16.8764C20.2318 16.7144 20.1335 16.5672 20.0095 16.4433C19.8855 16.3193 19.7383 16.221 19.5763 16.154C19.4143 16.087 19.2407 16.0526 19.0654 16.0527Z" fill="white"/>
<path d="M16.0001 2.66602C8.63875 2.66602 2.66675 8.63535 2.66675 15.9993C2.66675 23.3607 8.63875 29.3327 16.0001 29.3327C23.3614 29.3327 29.3334 23.3607 29.3334 15.9993C29.3334 8.63535 23.3614 2.66602 16.0001 2.66602ZM23.8121 17.7727C23.8281 17.9673 23.8281 18.1633 23.8121 18.358C23.8121 21.3447 20.3334 23.774 16.0387 23.774C11.7441 23.774 8.26541 21.3473 8.26541 18.358C8.24941 18.1632 8.24941 17.9675 8.26541 17.7727C7.98466 17.6439 7.73859 17.4501 7.54753 17.2074C7.35647 16.9647 7.22591 16.68 7.16664 16.3769C7.10737 16.0737 7.12108 15.7608 7.20665 15.464C7.29222 15.1672 7.44719 14.8951 7.65875 14.67C7.83371 14.4837 8.0437 14.3336 8.27671 14.2285C8.50972 14.1235 8.76117 14.0653 9.01666 14.0575C9.27215 14.0497 9.52668 14.0924 9.76567 14.1831C10.0047 14.2738 10.2234 14.4107 10.4094 14.586C11.9456 13.5446 13.7524 12.9746 15.6081 12.946L16.5987 8.31935V8.31402C16.6233 8.20707 16.6889 8.11409 16.7815 8.05519C16.8741 7.9963 16.9862 7.97624 17.0934 7.99935L20.3587 8.65268C20.5188 8.37852 20.7714 8.17039 21.0711 8.06567C21.3708 7.96094 21.698 7.96648 21.994 8.08128C22.29 8.19609 22.5353 8.41264 22.686 8.69206C22.8367 8.97148 22.8829 9.29547 22.8163 9.60586C22.7496 9.91626 22.5745 10.1927 22.3223 10.3856C22.0702 10.5785 21.7576 10.6753 21.4405 10.6584C21.1235 10.6416 20.8229 10.5123 20.5926 10.2937C20.3623 10.0752 20.2175 9.78173 20.1841 9.46601L17.3334 8.86602L16.4681 13.026C18.3016 13.0656 20.0845 13.6352 21.6014 14.666C21.8724 14.4064 22.2127 14.2306 22.5813 14.1599C22.9499 14.0892 23.331 14.1265 23.6789 14.2674C24.0267 14.4083 24.3264 14.6467 24.5419 14.954C24.7574 15.2613 24.8795 15.6243 24.8934 15.9993C24.9067 16.75 24.4841 17.4393 23.8121 17.7727Z" fill="white"/>
</svg>
