<svg width="32" height="32" viewBox="0 0 32 32" fill="none" xmlns="http://www.w3.org/2000/svg">
<path d="M28.7906 9.60336C28.6388 9.03989 28.342 8.52603 27.9298 8.11292C27.5176 7.6998 27.0044 7.40184 26.4413 7.24869C24.3533 6.67536 16 6.66603 16 6.66603C16 6.66603 7.64795 6.65669 5.55862 7.20469C4.99585 7.36489 4.48371 7.66706 4.07137 8.0822C3.65903 8.49735 3.36033 9.01152 3.20395 9.57536C2.65328 11.6634 2.64795 15.994 2.64795 15.994C2.64795 15.994 2.64262 20.346 3.18928 22.4127C3.49595 23.5554 4.39595 24.458 5.53995 24.766C7.64929 25.3394 15.98 25.3487 15.98 25.3487C15.98 25.3487 24.3333 25.358 26.4213 24.8114C26.9846 24.6585 27.4983 24.3612 27.9115 23.9489C28.3247 23.5367 28.6231 23.0237 28.7773 22.4607C29.3293 20.374 29.3333 16.0447 29.3333 16.0447C29.3333 16.0447 29.36 11.6914 28.7906 9.60336ZM13.328 20.006L13.3346 12.006L20.2773 16.0127L13.328 20.006Z" fill="white"/>
</svg>
