<svg width="32" height="32" viewBox="0 0 32 32" fill="none" xmlns="http://www.w3.org/2000/svg">
<path d="M26.1774 10.6634C26.1947 10.8967 26.1947 11.1287 26.1947 11.3607C26.1947 18.4607 20.7907 26.642 10.9147 26.642C7.87208 26.642 5.04541 25.7607 2.66675 24.23C3.09875 24.2794 3.51475 24.2967 3.96408 24.2967C6.3814 24.3025 8.73028 23.4942 10.6321 22.002C9.51131 21.9818 8.42485 21.612 7.5244 20.9444C6.62395 20.2767 5.95446 19.3446 5.60941 18.278C5.94141 18.3274 6.27475 18.3607 6.62408 18.3607C7.10541 18.3607 7.58941 18.294 8.03875 18.178C6.82243 17.9325 5.72871 17.2732 4.94357 16.3123C4.15843 15.3514 3.73034 14.1482 3.73208 12.9074V12.8407C4.44808 13.2394 5.27875 13.4887 6.15875 13.522C5.42153 13.0322 4.81704 12.3674 4.3992 11.5871C3.98136 10.8068 3.76317 9.93518 3.76408 9.05004C3.76408 8.05271 4.02941 7.13804 4.49475 6.34071C5.84427 8.00074 7.52742 9.35879 9.4352 10.3269C11.343 11.295 13.4328 11.8517 15.5694 11.9607C15.4867 11.5607 15.4361 11.146 15.4361 10.73C15.4357 10.0247 15.5744 9.32612 15.8442 8.67436C16.114 8.0226 16.5095 7.43041 17.0083 6.93163C17.5071 6.43284 18.0993 6.03726 18.7511 5.76748C19.4028 5.4977 20.1014 5.35903 20.8067 5.35938C22.3534 5.35938 23.7494 6.00738 24.7307 7.05538C25.9331 6.82287 27.0861 6.38394 28.1387 5.75804C27.738 6.99913 26.8984 8.05151 25.7774 8.71804C26.8438 8.59641 27.886 8.31598 28.8694 7.88604C28.1349 8.95684 27.2248 9.89584 26.1774 10.6634Z" fill="white"/>
</svg>
