<svg width="32" height="32" viewBox="0 0 32 32" fill="none" xmlns="http://www.w3.org/2000/svg">
<path d="M19.7599 5.67969C19.4951 6.15394 19.2591 6.64371 19.0532 7.14635C17.0302 6.82642 14.9695 6.82642 12.9466 7.14635C12.7407 6.64371 12.5047 6.15394 12.2399 5.67969C10.3343 6.00529 8.48176 6.5884 6.73322 7.41302C3.60648 11.9254 2.18847 17.4036 2.73322 22.8664C4.77087 24.3982 7.05783 25.5665 9.49322 26.3197C10.0478 25.5872 10.5427 24.8113 10.9732 23.9997C10.1787 23.7067 9.41495 23.336 8.69322 22.893C8.89117 22.7613 9.07842 22.6142 9.25322 22.453C11.3578 23.4668 13.6638 23.9932 15.9999 23.9932C18.3359 23.9932 20.6419 23.4668 22.7466 22.453C22.9332 22.613 23.1199 22.7597 23.3066 22.893C22.5809 23.3325 21.818 23.7073 21.0266 24.013C21.4392 24.8431 21.9209 25.637 22.4666 26.3864C24.8989 25.6357 27.1819 24.4671 29.2132 22.933C29.7711 17.4693 28.3519 11.9866 25.2132 7.47969C23.4843 6.638 21.6501 6.03258 19.7599 5.67969ZM11.5732 19.7464C10.906 19.6985 10.2833 19.3939 9.83578 18.8967C9.38829 18.3995 9.15082 17.7483 9.17322 17.0797C9.14744 16.4102 9.38374 15.7571 9.83191 15.2592C10.2801 14.7612 10.9048 14.4576 11.5732 14.413C12.2417 14.4576 12.8664 14.7612 13.3145 15.2592C13.7627 15.7571 13.999 16.4102 13.9732 17.0797C13.999 17.7491 13.7627 18.4022 13.3145 18.9002C12.8664 19.3982 12.2417 19.7017 11.5732 19.7464ZM20.4266 19.7464C19.7593 19.6985 19.1366 19.3939 18.6891 18.8967C18.2416 18.3995 18.0042 17.7483 18.0266 17.0797C18.0008 16.4102 18.2371 15.7571 18.6852 15.2592C19.1334 14.7612 19.7581 14.4576 20.4266 14.413C21.0963 14.4543 21.723 14.7569 22.1718 15.2556C22.6207 15.7543 22.8558 16.4094 22.8266 17.0797C22.8558 17.75 22.6207 18.405 22.1718 18.9038C21.723 19.4025 21.0963 19.7051 20.4266 19.7464Z" fill="white"/>
</svg>
