<svg width="25" height="24" viewBox="0 0 25 24" fill="none" xmlns="http://www.w3.org/2000/svg">
<path fill-rule="evenodd" clip-rule="evenodd" d="M2.87488 12C2.87488 6.48 7.34488 2 12.8749 2C18.3949 2 22.8749 6.48 22.8749 12C22.8749 17.53 18.3949 22 12.8749 22C7.34488 22 2.87488 17.53 2.87488 12ZM15.1049 13.83L16.7249 8.71C16.8349 8.36 16.5149 8.03 16.1649 8.14L11.0449 9.74C10.8349 9.81 10.6649 9.97 10.6049 10.18L9.00488 15.31C8.89488 15.65 9.22488 15.98 9.56488 15.87L14.6649 14.27C14.8749 14.21 15.0449 14.04 15.1049 13.83Z" fill="#6949FF"/>
</svg>
