<svg width="25" height="24" viewBox="0 0 25 24" fill="none" xmlns="http://www.w3.org/2000/svg">
<path fill-rule="evenodd" clip-rule="evenodd" d="M8.95374 16.1353C8.95374 15.721 9.28952 15.3853 9.70374 15.3853H15.5187C15.9329 15.3853 16.2687 15.721 16.2687 16.1353C16.2687 16.5495 15.9329 16.8853 15.5187 16.8853H9.70374C9.28952 16.8853 8.95374 16.5495 8.95374 16.1353Z" fill="#9E9E9E"/>
<path fill-rule="evenodd" clip-rule="evenodd" d="M7.43488 5.97765C7.02234 6.35978 6.65192 6.68822 6.32265 6.97845C6.27617 7.01941 6.23066 7.05949 6.18607 7.09875C5.90716 7.34435 5.66427 7.55824 5.4461 7.75963C4.94079 8.22608 4.6216 8.57827 4.39587 8.97216C3.94337 9.76176 3.77502 10.869 3.77502 13.713C3.77502 15.7691 3.89809 17.2451 4.17618 18.3153C4.44918 19.3658 4.85614 19.9679 5.39524 20.3548C5.95828 20.759 6.76207 20.9997 7.97247 21.1245C9.18168 21.2491 10.69 21.25 12.611 21.25C14.532 21.25 16.0404 21.2491 17.2496 21.1245C18.46 20.9997 19.2638 20.759 19.8268 20.3548C20.3659 19.9679 20.7729 19.3658 21.0459 18.3153C21.324 17.2451 21.447 15.7691 21.447 13.713C21.447 10.8689 21.2789 9.76166 20.8266 8.97204C20.601 8.57818 20.2819 8.22601 19.7767 7.75958C19.5584 7.55801 19.3153 7.34391 19.0361 7.09801C18.9918 7.05898 18.9465 7.01914 18.9003 6.97843C18.5711 6.6882 18.2007 6.35976 17.7881 5.97762C17.5439 5.78041 17.2909 5.56703 17.0287 5.34588C16.4576 4.86414 15.8427 4.34554 15.1794 3.87695C14.1945 3.18118 13.3025 2.75 12.583 2.75C11.8659 2.75 10.9861 3.18121 10.0142 3.87803C9.37987 4.33278 8.79964 4.827 8.25445 5.29137C7.97278 5.53128 7.70047 5.76323 7.43488 5.97765ZM9.14015 2.65897C10.1405 1.94179 11.3572 1.25 12.583 1.25C13.8055 1.25 15.0321 1.93632 16.0449 2.6518C16.7609 3.15759 17.4691 3.75449 18.0621 4.25416C18.315 4.46729 18.5469 4.66274 18.7494 4.82587C18.763 4.83681 18.7762 4.84822 18.789 4.86008C19.195 5.23662 19.5604 5.5607 19.8922 5.85318C19.9372 5.89284 19.9817 5.93205 20.0258 5.97083C20.3037 6.21553 20.5619 6.4429 20.7943 6.65748C21.3335 7.15537 21.7874 7.63157 22.1282 8.22646C22.8086 9.41434 22.947 10.9261 22.947 13.713C22.947 15.8004 22.8252 17.432 22.4977 18.6926C22.165 19.9727 21.6055 20.9245 20.7015 21.5734C19.8214 22.2051 18.7054 22.4824 17.4034 22.6166C16.1087 22.75 14.5244 22.75 12.6482 22.75H12.5739C10.6976 22.75 9.11333 22.75 7.81867 22.6166C6.51667 22.4824 5.40065 22.2051 4.52055 21.5734C3.61653 20.9245 3.05706 19.9727 2.7244 18.6926C2.39684 17.432 2.27502 15.8004 2.27502 13.713C2.27502 10.926 2.41368 9.41424 3.09443 8.22634C3.43533 7.63148 3.88932 7.1553 4.42867 6.65743C4.66085 6.4431 4.91878 6.216 5.19633 5.97161C5.24067 5.93257 5.28551 5.89309 5.33082 5.85316C5.66264 5.56069 6.02802 5.23661 6.43404 4.86008C6.44686 4.84818 6.4601 4.83674 6.47373 4.82577C6.68585 4.65502 6.93341 4.44454 7.20495 4.21367C7.77894 3.72566 8.46007 3.14655 9.14015 2.65897Z" fill="#9E9E9E"/>
</svg>
