<svg width="25" height="24" viewBox="0 0 25 24" fill="none" xmlns="http://www.w3.org/2000/svg">
<path fill-rule="evenodd" clip-rule="evenodd" d="M12.0865 11.2119L11.0395 14.5589L14.3855 13.5109L15.4335 10.1639L12.0865 11.2119ZM9.89545 16.4519C9.69945 16.4519 9.50745 16.3749 9.36445 16.2329C9.16745 16.0349 9.09545 15.7439 9.17945 15.4789L10.7725 10.3899C10.8455 10.1539 11.0295 9.97089 11.2635 9.89789L16.3525 8.30489C16.6195 8.21989 16.9095 8.29289 17.1075 8.48989C17.3045 8.68789 17.3765 8.97889 17.2925 9.24389L15.7005 14.3329C15.6275 14.5679 15.4425 14.7519 15.2085 14.8249L10.1195 16.4179C10.0455 16.4409 9.96945 16.4519 9.89545 16.4519Z" fill="#9E9E9E"/>
<mask id="mask0_3588_12657" style="mask-type:luminance" maskUnits="userSpaceOnUse" x="2" y="2" width="22" height="21">
<path fill-rule="evenodd" clip-rule="evenodd" d="M2.875 2H23.5968V22.7217H2.875V2Z" fill="white"/>
</mask>
<g mask="url(#mask0_3588_12657)">
<path fill-rule="evenodd" clip-rule="evenodd" d="M13.2358 3.5C8.34976 3.5 4.37476 7.476 4.37476 12.361C4.37476 17.247 8.34976 21.222 13.2358 21.222C18.1218 21.222 22.0968 17.247 22.0968 12.361C22.0968 7.476 18.1218 3.5 13.2358 3.5ZM13.2358 22.722C7.52276 22.722 2.87476 18.074 2.87476 12.361C2.87476 6.648 7.52276 2 13.2358 2C18.9488 2 23.5968 6.648 23.5968 12.361C23.5968 18.074 18.9488 22.722 13.2358 22.722Z" fill="#9E9E9E"/>
</g>
</svg>
