<svg width="25" height="24" viewBox="0 0 25 24" fill="none" xmlns="http://www.w3.org/2000/svg">
<path fill-rule="evenodd" clip-rule="evenodd" d="M12.2639 12.6188H12.2959C15.2239 12.6188 17.6049 10.2378 17.6049 7.30976C17.6049 4.38176 15.2239 1.99976 12.2959 1.99976C9.36689 1.99976 6.98489 4.38176 6.98489 7.30676C6.97489 10.2268 9.3419 12.6098 12.2639 12.6188ZM8.41289 7.30976C8.41289 5.16876 10.1549 3.42776 12.2959 3.42776C14.4359 3.42776 16.1769 5.16876 16.1769 7.30976C16.1769 9.44976 14.4359 11.1918 12.2959 11.1918H12.2669C10.1349 11.1838 8.40589 9.44376 8.41289 7.30976Z" fill="#9E9E9E"/>
<path fill-rule="evenodd" clip-rule="evenodd" d="M4.37488 18.1731C4.37488 21.8701 10.3369 21.8701 12.2959 21.8701C15.6949 21.8701 20.2149 21.4891 20.2149 18.1931C20.2149 14.4961 14.2549 14.4961 12.2959 14.4961C8.89588 14.4961 4.37488 14.8771 4.37488 18.1731ZM5.87488 18.1731C5.87488 16.7281 8.03488 15.9961 12.2959 15.9961C16.5559 15.9961 18.7149 16.7351 18.7149 18.1931C18.7149 19.6381 16.5559 20.3701 12.2959 20.3701C8.03488 20.3701 5.87488 19.6311 5.87488 18.1731Z" fill="#9E9E9E"/>
</svg>
