<svg width="25" height="24" viewBox="0 0 25 24" fill="none" xmlns="http://www.w3.org/2000/svg">
<path d="M21.12 6.64673C21.12 8.65806 19.4895 10.2886 17.4782 10.2886C15.4668 10.2886 13.8363 8.65806 13.8363 6.64673C13.8363 4.63539 15.4668 3.00488 17.4782 3.00488C19.4895 3.00488 21.12 4.63539 21.12 6.64673Z" fill="#6949FF"/>
<path d="M10.4138 6.64673C10.4138 8.65806 8.78331 10.2886 6.77197 10.2886C4.76064 10.2886 3.13013 8.65806 3.13013 6.64673C3.13013 4.63539 4.76064 3.00488 6.77197 3.00488C8.78331 3.00488 10.4138 4.63539 10.4138 6.64673Z" fill="#6949FF"/>
<path d="M21.12 17.353C21.12 19.3643 19.4895 20.9948 17.4782 20.9948C15.4668 20.9948 13.8363 19.3643 13.8363 17.353C13.8363 15.3416 15.4668 13.7111 17.4782 13.7111C19.4895 13.7111 21.12 15.3416 21.12 17.353Z" fill="#6949FF"/>
<path d="M10.4138 17.353C10.4138 19.3643 8.78331 20.9948 6.77197 20.9948C4.76064 20.9948 3.13013 19.3643 3.13013 17.353C3.13013 15.3416 4.76064 13.7111 6.77197 13.7111C8.78331 13.7111 10.4138 15.3416 10.4138 17.353Z" fill="#6949FF"/>
</svg>
