<svg width="25" height="24" viewBox="0 0 25 24" fill="none" xmlns="http://www.w3.org/2000/svg">
<path fill-rule="evenodd" clip-rule="evenodd" d="M21.1254 17.2619C21.1254 19.2905 19.4802 20.9348 17.4516 20.9348C15.423 20.9348 13.7787 19.2905 13.7787 17.2619C13.7787 15.2333 15.423 13.5881 17.4516 13.5881C19.4802 13.5881 21.1254 15.2333 21.1254 17.2619Z" stroke="#9E9E9E" stroke-width="1.5" stroke-linecap="round" stroke-linejoin="round"/>
<path fill-rule="evenodd" clip-rule="evenodd" d="M10.4717 17.2619C10.4717 19.2905 8.8274 20.9348 6.7979 20.9348C4.7702 20.9348 3.125 19.2905 3.125 17.2619C3.125 15.2333 4.7702 13.5881 6.7979 13.5881C8.8274 13.5881 10.4717 15.2333 10.4717 17.2619Z" stroke="#9E9E9E" stroke-width="1.5" stroke-linecap="round" stroke-linejoin="round"/>
<path fill-rule="evenodd" clip-rule="evenodd" d="M21.1254 6.6738C21.1254 8.7024 19.4802 10.3476 17.4516 10.3476C15.423 10.3476 13.7787 8.7024 13.7787 6.6738C13.7787 4.6452 15.423 3 17.4516 3C19.4802 3 21.1254 4.6452 21.1254 6.6738Z" stroke="#9E9E9E" stroke-width="1.5" stroke-linecap="round" stroke-linejoin="round"/>
<path fill-rule="evenodd" clip-rule="evenodd" d="M10.4717 6.6738C10.4717 8.7024 8.8274 10.3476 6.7979 10.3476C4.7702 10.3476 3.125 8.7024 3.125 6.6738C3.125 4.6452 4.7702 3 6.7979 3C8.8274 3 10.4717 4.6452 10.4717 6.6738Z" stroke="#9E9E9E" stroke-width="1.5" stroke-linecap="round" stroke-linejoin="round"/>
</svg>
