<svg width="25" height="24" viewBox="0 0 25 24" fill="none" xmlns="http://www.w3.org/2000/svg">
<path fill-rule="evenodd" clip-rule="evenodd" d="M15.5331 16.885H9.71806C9.30406 16.885 8.96806 16.549 8.96806 16.135C8.96806 15.721 9.30406 15.385 9.71806 15.385H15.5331C15.9471 15.385 16.2831 15.721 16.2831 16.135C16.2831 16.549 15.9471 16.885 15.5331 16.885ZM19.8741 6.158C19.5111 5.838 19.0981 5.476 18.6061 5.021C18.3831 4.841 18.1391 4.635 17.8801 4.417C16.4201 3.186 14.4201 1.5 12.5971 1.5C10.7951 1.5 8.92406 3.092 7.42106 4.371C7.14306 4.607 6.88306 4.829 6.61806 5.044C6.15206 5.476 5.73906 5.839 5.37506 6.16C2.98806 8.261 2.53906 8.812 2.53906 13.713C2.53906 22.5 5.08006 22.5 12.6251 22.5C20.1691 22.5 22.7111 22.5 22.7111 13.713C22.7111 8.811 22.2621 8.26 19.8741 6.158Z" fill="#6949FF"/>
</svg>
