<svg width="24" height="25" viewBox="0 0 24 25" fill="none" xmlns="http://www.w3.org/2000/svg">
<path fill-rule="evenodd" clip-rule="evenodd" d="M15.7158 17.4727H8.49579C8.08179 17.4727 7.74579 17.1367 7.74579 16.7227C7.74579 16.3087 8.08179 15.9727 8.49579 15.9727H15.7158C16.1298 15.9727 16.4658 16.3087 16.4658 16.7227C16.4658 17.1367 16.1298 17.4727 15.7158 17.4727Z" fill="#212121"/>
<path fill-rule="evenodd" clip-rule="evenodd" d="M15.7158 13.2871H8.49579C8.08179 13.2871 7.74579 12.9511 7.74579 12.5371C7.74579 12.1231 8.08179 11.7871 8.49579 11.7871H15.7158C16.1298 11.7871 16.4658 12.1231 16.4658 12.5371C16.4658 12.9511 16.1298 13.2871 15.7158 13.2871Z" fill="#212121"/>
<path fill-rule="evenodd" clip-rule="evenodd" d="M11.2505 9.10938H8.49551C8.08151 9.10938 7.74551 8.77338 7.74551 8.35938C7.74551 7.94537 8.08151 7.60938 8.49551 7.60938H11.2505C11.6645 7.60938 12.0005 7.94537 12.0005 8.35938C12.0005 8.77338 11.6645 9.10938 11.2505 9.10938Z" fill="#212121"/>
<mask id="mask0_3843_4947" style="mask-type:luminance" maskUnits="userSpaceOnUse" x="3" y="2" width="19" height="21">
<path fill-rule="evenodd" clip-rule="evenodd" d="M3 2.5H21.1647V22.4098H3V2.5Z" fill="white"/>
</mask>
<g mask="url(#mask0_3843_4947)">
<path fill-rule="evenodd" clip-rule="evenodd" d="M15.9087 4L8.2197 4.004C5.89169 4.018 4.49969 5.458 4.49969 7.857V17.053C4.49969 19.468 5.90469 20.91 8.25569 20.91L15.9447 20.907C18.2727 20.893 19.6647 19.451 19.6647 17.053V7.857C19.6647 5.442 18.2607 4 15.9087 4ZM8.25669 22.41C5.11269 22.41 2.99969 20.257 2.99969 17.053V7.857C2.99969 4.624 5.04669 2.523 8.21469 2.504L15.9077 2.5H15.9087C19.0527 2.5 21.1647 4.653 21.1647 7.857V17.053C21.1647 20.285 19.1177 22.387 15.9497 22.407L8.25669 22.41Z" fill="#212121"/>
</g>
</svg>
