<svg width="24" height="25" viewBox="0 0 24 25" fill="none" xmlns="http://www.w3.org/2000/svg">
<path fill-rule="evenodd" clip-rule="evenodd" d="M11.9996 10.1406C10.6696 10.1406 9.58859 11.2226 9.58859 12.5526C9.58859 13.8816 10.6696 14.9626 11.9996 14.9626C13.3296 14.9626 14.4116 13.8816 14.4116 12.5526C14.4116 11.2226 13.3296 10.1406 11.9996 10.1406ZM11.9996 16.4626C9.84259 16.4626 8.08859 14.7086 8.08859 12.5526C8.08859 10.3956 9.84259 8.64062 11.9996 8.64062C14.1566 8.64062 15.9116 10.3956 15.9116 12.5526C15.9116 14.7086 14.1566 16.4626 11.9996 16.4626Z" fill="#212121"/>
<mask id="mask0_3843_4965" style="mask-type:luminance" maskUnits="userSpaceOnUse" x="2" y="4" width="20" height="17">
<path fill-rule="evenodd" clip-rule="evenodd" d="M2.00015 4.5H22V20.605H2.00015V4.5Z" fill="white"/>
</mask>
<g mask="url(#mask0_3843_4965)">
<path fill-rule="evenodd" clip-rule="evenodd" d="M3.5699 12.5527C5.4299 16.6617 8.5629 19.1047 11.9999 19.1057C15.4369 19.1047 18.5699 16.6617 20.4299 12.5527C18.5699 8.44475 15.4369 6.00175 11.9999 6.00075C8.5639 6.00175 5.4299 8.44475 3.5699 12.5527ZM12.0019 20.6057H11.9979H11.9969C7.8609 20.6027 4.1469 17.7038 2.0609 12.8488C1.9799 12.6597 1.9799 12.4458 2.0609 12.2568C4.1469 7.40275 7.8619 4.50375 11.9969 4.50075C11.9989 4.49975 11.9989 4.49975 11.9999 4.50075C12.0019 4.49975 12.0019 4.49975 12.0029 4.50075C16.1389 4.50375 19.8529 7.40275 21.9389 12.2568C22.0209 12.4458 22.0209 12.6597 21.9389 12.8488C19.8539 17.7038 16.1389 20.6027 12.0029 20.6057H12.0019Z" fill="#212121"/>
</g>
</svg>
