<svg width="24" height="25" viewBox="0 0 24 25" fill="none" xmlns="http://www.w3.org/2000/svg">
<path fill-rule="evenodd" clip-rule="evenodd" d="M11.8889 13.119H11.9209C14.8489 13.119 17.2299 10.738 17.2299 7.81C17.2299 4.882 14.8489 2.5 11.9209 2.5C8.99189 2.5 6.60989 4.882 6.60989 7.807C6.59989 10.727 8.9669 13.11 11.8889 13.119ZM8.03789 7.81C8.03789 5.669 9.77989 3.928 11.9209 3.928C14.0609 3.928 15.8019 5.669 15.8019 7.81C15.8019 9.95 14.0609 11.692 11.9209 11.692H11.8919C9.75989 11.684 8.03089 9.944 8.03789 7.81Z" fill="#212121"/>
<path fill-rule="evenodd" clip-rule="evenodd" d="M3.99988 18.6733C3.99988 22.3703 9.96188 22.3703 11.9209 22.3703C15.3199 22.3703 19.8399 21.9893 19.8399 18.6933C19.8399 14.9963 13.8799 14.9963 11.9209 14.9963C8.52088 14.9963 3.99988 15.3773 3.99988 18.6733ZM5.49988 18.6733C5.49988 17.2283 7.65988 16.4963 11.9209 16.4963C16.1809 16.4963 18.3399 17.2353 18.3399 18.6933C18.3399 20.1383 16.1809 20.8703 11.9209 20.8703C7.65988 20.8703 5.49988 20.1313 5.49988 18.6733Z" fill="#212121"/>
</svg>
