<svg width="24" height="25" viewBox="0 0 24 25" fill="none" xmlns="http://www.w3.org/2000/svg">
<path fill-rule="evenodd" clip-rule="evenodd" d="M16.9229 10.6998C16.5089 10.6998 16.1729 10.3638 16.1729 9.94977V7.80277C16.1729 5.70677 14.4679 4.00177 12.3719 4.00177H12.3559C11.3429 4.00177 10.3939 4.39177 9.67691 5.10277C8.95491 5.81677 8.55591 6.76977 8.55191 7.78577V9.94977C8.55191 10.3638 8.21591 10.6998 7.80191 10.6998C7.38791 10.6998 7.05191 10.3638 7.05191 9.94977V7.80277C7.05791 6.36277 7.61491 5.03377 8.61991 4.03777C9.62591 3.04077 10.9539 2.46377 12.3749 2.50177C15.2949 2.50177 17.6729 4.87977 17.6729 7.80277V9.94977C17.6729 10.3638 17.3369 10.6998 16.9229 10.6998Z" fill="#212121"/>
<path fill-rule="evenodd" clip-rule="evenodd" d="M8.542 10.6289C6.864 10.6289 5.5 11.9929 5.5 13.6709V17.9599C5.5 19.6379 6.864 21.0019 8.542 21.0019H16.183C17.86 21.0019 19.225 19.6379 19.225 17.9599V13.6709C19.225 11.9929 17.86 10.6289 16.183 10.6289H8.542ZM16.183 22.5019H8.542C6.037 22.5019 4 20.4649 4 17.9599V13.6709C4 11.1659 6.037 9.12891 8.542 9.12891H16.183C18.688 9.12891 20.725 11.1659 20.725 13.6709V17.9599C20.725 20.4649 18.688 22.5019 16.183 22.5019Z" fill="#212121"/>
<path fill-rule="evenodd" clip-rule="evenodd" d="M12.3623 17.6761C11.9483 17.6761 11.6123 17.3401 11.6123 16.9261V14.7051C11.6123 14.2911 11.9483 13.9551 12.3623 13.9551C12.7763 13.9551 13.1123 14.2911 13.1123 14.7051V16.9261C13.1123 17.3401 12.7763 17.6761 12.3623 17.6761Z" fill="#212121"/>
</svg>
