<svg width="24" height="25" viewBox="0 0 24 25" fill="none" xmlns="http://www.w3.org/2000/svg">
<path fill-rule="evenodd" clip-rule="evenodd" d="M12.1983 23.0006H12.1963C11.0753 22.9996 10.0143 22.5056 9.2093 21.6086C8.9323 21.3016 8.9573 20.8266 9.2653 20.5506C9.5733 20.2726 10.0473 20.2976 10.3243 20.6066C10.8423 21.1836 11.5073 21.5006 12.1973 21.5006H12.1983C12.8913 21.5006 13.5593 21.1836 14.0783 20.6056C14.3563 20.2986 14.8303 20.2736 15.1373 20.5506C15.4453 20.8276 15.4703 21.3026 15.1933 21.6096C14.3853 22.5066 13.3223 23.0006 12.1983 23.0006Z" fill="#212121"/>
<mask id="mask0_3843_4915" style="mask-type:luminance" maskUnits="userSpaceOnUse" x="3" y="1" width="19" height="18">
<path fill-rule="evenodd" clip-rule="evenodd" d="M3.00009 1.5H21.497V18.848H3.00009V1.5Z" fill="white"/>
</mask>
<g mask="url(#mask0_3843_4915)">
<path fill-rule="evenodd" clip-rule="evenodd" d="M12.2471 3C8.75211 3 6.3161 5.738 6.3161 8.195C6.3161 10.274 5.7391 11.235 5.2291 12.083C4.8201 12.764 4.4971 13.302 4.4971 14.471C4.6641 16.357 5.90911 17.348 12.2471 17.348C18.5501 17.348 19.8341 16.313 20.0001 14.406C19.9971 13.302 19.6741 12.764 19.2651 12.083C18.7551 11.235 18.1781 10.274 18.1781 8.195C18.1781 5.738 15.7421 3 12.2471 3ZM12.2471 18.848C7.5711 18.848 3.3451 18.518 3.0001 14.535C2.9971 12.887 3.5001 12.049 3.9441 11.311C4.3931 10.563 4.8161 9.858 4.8161 8.195C4.8161 4.962 7.8021 1.5 12.2471 1.5C16.6921 1.5 19.6781 4.962 19.6781 8.195C19.6781 9.858 20.1011 10.563 20.5501 11.311C20.9941 12.049 21.4971 12.887 21.4971 14.471C21.1481 18.518 16.9231 18.848 12.2471 18.848Z" fill="#212121"/>
</g>
</svg>
