<svg width="24" height="25" viewBox="0 0 24 25" fill="none" xmlns="http://www.w3.org/2000/svg">
<mask id="mask0_3843_5020" style="mask-type:luminance" maskUnits="userSpaceOnUse" x="2" y="2" width="20" height="21">
<path fill-rule="evenodd" clip-rule="evenodd" d="M2 2.5H21.9999V22.5H2V2.5Z" fill="white"/>
</mask>
<g mask="url(#mask0_3843_5020)">
<path fill-rule="evenodd" clip-rule="evenodd" d="M7.664 4C5.135 4 3.5 5.733 3.5 8.416V16.584C3.5 19.267 5.135 21 7.664 21H16.332C18.864 21 20.5 19.267 20.5 16.584V8.416C20.5 5.733 18.864 4 16.334 4H7.664ZM16.332 22.5H7.664C4.276 22.5 2 20.122 2 16.584V8.416C2 4.878 4.276 2.5 7.664 2.5H16.334C19.723 2.5 22 4.878 22 8.416V16.584C22 20.122 19.723 22.5 16.332 22.5Z" fill="#212121"/>
</g>
<path fill-rule="evenodd" clip-rule="evenodd" d="M11.994 17.25C11.58 17.25 11.244 16.914 11.244 16.5V12.5C11.244 12.086 11.58 11.75 11.994 11.75C12.408 11.75 12.744 12.086 12.744 12.5V16.5C12.744 16.914 12.408 17.25 11.994 17.25Z" fill="#212121"/>
<path fill-rule="evenodd" clip-rule="evenodd" d="M11.9989 9.70312C11.4459 9.70312 10.9939 9.25612 10.9939 8.70312C10.9939 8.15013 11.4369 7.70312 11.9889 7.70312H11.9989C12.5519 7.70312 12.9989 8.15013 12.9989 8.70312C12.9989 9.25612 12.5519 9.70312 11.9989 9.70312Z" fill="#212121"/>
</svg>
